<?xml version="1.0" encoding="utf-8"?>
<!-- Generator: Adobe Illustrator 12.0.1, SVG Export Plug-In . SVG Version: 6.00 Build 51448)  -->
<!DOCTYPE svg PUBLIC "-//W3C//DTD SVG 1.1//EN" "http://www.w3.org/Graphics/SVG/1.1/DTD/svg11.dtd" [
	<!ENTITY ns_svg "http://www.w3.org/2000/svg">
	<!ENTITY ns_xlink "http://www.w3.org/1999/xlink">
	<!ENTITY st0 "fill:#FFFFFF;">
]>
<svg  version="1.1" id="Layer_1" xmlns="&ns_svg;" xmlns:xlink="&ns_xlink;" width="1525.954" height="235.745"
	 viewBox="0 0 1525.954 235.745" style="overflow:visible;enable-background:new 0 0 1525.954 235.745;" xml:space="preserve">
<g>
	<rect style="&st0;" width="1525.954" height="235.745"/>
	<path d="M1525.954,60.497H0v-1.356h1525.954V60.497z M1525.954,78.856H0v-1.512h1525.954V78.856z M1525.954,97.072H0v-1.367
		h1525.954V97.072z M1525.954,115.289H0v-1.368h1525.954V115.289z M1525.954,133.516H0v-1.379h1525.954V133.516z"/>
	<path d="M262.63,132.558c-1.776,0.288-3.721,0.433-5.832,0.433c-4.465,0-7.752-0.504-9.863-1.512
		c-6.721-3.217-11.473-7.178-14.258-11.882c-2.016-3.408-3.215-7.92-3.6-13.537c-0.336-4.656,0.768-9.528,3.312-14.617
		c2.16-4.368,4.955-8.173,8.387-11.413s7.309-6.492,11.629-9.757c-0.24-1.2-0.576-3.576-1.008-7.129
		c-0.24-3.312-0.359-5.593-0.359-6.841c0-3.456,0.287-6.744,0.863-9.865c0.576-2.832,2.039-6.144,4.392-9.937
		c2.592-4.176,4.848-6.288,6.769-6.337c1.584,0,3.348,2.377,5.292,7.129c1.943,4.753,2.964,8.834,3.06,12.242
		c0.096,4.513-0.36,8.401-1.368,11.666c-0.672,2.16-1.92,4.849-3.744,8.064c-0.768,1.297-2.352,3.433-4.752,6.409
		c-0.672,0.865-1.561,1.753-2.664,2.665c-0.96,0.721-1.896,1.465-2.808,2.232l2.376,13.97c0.624-0.096,1.32-0.144,2.088-0.144
		c4.368,0,7.752,0.889,10.152,2.664c4.512,3.312,6.983,8.041,7.416,14.186c0.336,4.272-0.624,8.232-2.88,11.881
		c-2.449,3.984-6.049,6.961-10.801,8.93c0.623,4.368,1.247,8.545,1.872,12.529c0.336,2.399,0.504,4.439,0.504,6.12
		c0,2.304-0.36,4.128-1.08,5.473c-2.641,4.944-6.648,7.585-12.022,7.921c-3.217,0.191-6.361-0.48-9.434-2.017
		c-3.84-1.873-5.855-4.586-6.047-8.139c-0.191-2.594,0.312-4.803,1.512-6.627c1.344-2.161,3.336-3.313,5.977-3.457
		c1.824-0.145,3.551,0.443,5.184,1.765c1.633,1.319,2.52,2.963,2.664,4.931c0.336,4.32-2.328,7.272-7.992,8.856
		c1.297,1.871,3.889,2.808,7.777,2.808c2.062,0,4.078-0.624,6.047-1.872c1.968-1.248,3.479-2.809,4.536-4.68
		c0.672-1.248,1.008-3.145,1.008-5.688c0-1.536-0.12-3.264-0.36-5.184C263.901,140.718,263.253,136.638,262.63,132.558z
		 M258.094,104.622c-3.505,0.096-6.146,1.32-7.921,3.672c-1.344,1.824-1.943,3.864-1.799,6.12c0.047,1.68,0.66,3.396,1.836,5.148
		s2.459,2.987,3.852,3.708c-0.24,0.144-0.48,0.407-0.719,0.792c-2.785-1.344-4.826-2.904-6.121-4.68c-1.92-2.593-3-5.473-3.24-8.641
		c-0.145-2.111,0.336-4.319,1.441-6.624c1.199-2.496,2.951-4.632,5.254-6.408c1.729-1.344,3.696-2.279,5.904-2.808l-2.16-13.032
		c-1.631,0.961-3.982,2.833-7.055,5.616c-3.793,3.408-6.553,6.456-8.279,9.144c-3.746,5.809-5.449,10.824-5.113,15.048
		c0.385,5.232,2.76,9.732,7.129,13.501c4.367,3.767,9.504,5.651,15.407,5.651c1.92,0,3.84-0.217,5.76-0.648
		C260.829,121.638,259.438,113.118,258.094,104.622z M264.141,41.334c-3.024,0-5.521,2.328-7.488,6.984
		c-1.872,4.32-2.808,9.336-2.808,15.047c0,1.873,0.12,3.673,0.36,5.4c3.791-2.976,7.007-6.239,9.647-9.792
		c3.312-4.416,4.849-8.231,4.608-11.447C268.173,43.351,266.732,41.286,264.141,41.334z M259.965,104.479l4.032,25.128
		c6.096-2.064,8.88-6.792,8.353-14.184C271.773,107.79,267.645,104.143,259.965,104.479z"/>
	<path d="M112.619,150.784c-1.776,0.288-3.721,0.433-5.832,0.433c-4.465,0-7.753-0.504-9.864-1.512
		c-6.721-3.217-11.473-7.178-14.257-11.882c-2.016-3.408-3.216-7.92-3.6-13.537c-0.336-4.656,0.768-9.528,3.312-14.617
		c2.159-4.368,4.955-8.173,8.387-11.413s7.309-6.492,11.629-9.757c-0.24-1.2-0.576-3.576-1.008-7.129
		c-0.24-3.312-0.36-5.593-0.36-6.841c0-3.456,0.288-6.744,0.864-9.865c0.575-2.832,2.039-6.144,4.392-9.937
		c2.592-4.176,4.848-6.288,6.769-6.337c1.584,0,3.348,2.377,5.292,7.129c1.943,4.753,2.964,8.834,3.06,12.242
		c0.096,4.513-0.36,8.401-1.368,11.666c-0.672,2.16-1.92,4.849-3.744,8.064c-0.768,1.297-2.352,3.433-4.752,6.409
		c-0.672,0.865-1.561,1.753-2.664,2.665c-0.96,0.721-1.896,1.465-2.808,2.232l2.376,13.97c0.624-0.096,1.32-0.144,2.088-0.144
		c4.368,0,7.752,0.889,10.152,2.664c4.512,3.312,6.983,8.041,7.416,14.186c0.336,4.272-0.624,8.232-2.88,11.881
		c-2.449,3.984-6.049,6.961-10.801,8.93c0.623,4.368,1.247,8.545,1.872,12.529c0.336,2.399,0.504,4.439,0.504,6.12
		c0,2.304-0.36,4.128-1.08,5.473c-2.641,4.944-6.648,7.585-12.023,7.921c-3.217,0.191-6.36-0.48-9.433-2.017
		c-3.84-1.873-5.856-4.586-6.048-8.139c-0.191-2.594,0.312-4.803,1.512-6.627c1.344-2.161,3.336-3.313,5.977-3.457
		c1.824-0.145,3.552,0.443,5.185,1.765c1.632,1.319,2.52,2.963,2.664,4.931c0.336,4.32-2.328,7.272-7.992,8.856
		c1.296,1.871,3.888,2.808,7.776,2.808c2.063,0,4.079-0.624,6.048-1.872c1.968-1.248,3.479-2.809,4.536-4.68
		c0.672-1.248,1.008-3.145,1.008-5.688c0-1.536-0.12-3.264-0.36-5.184C113.891,158.944,113.242,154.864,112.619,150.784z
		 M108.083,122.849c-3.505,0.096-6.146,1.32-7.921,3.672c-1.344,1.824-1.944,3.864-1.8,6.12c0.048,1.68,0.66,3.396,1.836,5.148
		s2.46,2.987,3.853,3.708c-0.24,0.144-0.48,0.407-0.72,0.792c-2.785-1.344-4.825-2.904-6.12-4.68c-1.92-2.593-3-5.473-3.24-8.641
		c-0.145-2.111,0.336-4.319,1.44-6.624c1.199-2.496,2.951-4.632,5.255-6.408c1.729-1.344,3.696-2.279,5.904-2.808l-2.16-13.032
		c-1.632,0.961-3.983,2.833-7.056,5.616c-3.792,3.408-6.552,6.456-8.279,9.144c-3.745,5.809-5.449,10.824-5.112,15.048
		c0.384,5.232,2.76,9.732,7.128,13.501c4.367,3.767,9.504,5.651,15.408,5.651c1.92,0,3.84-0.217,5.76-0.648
		C110.818,139.864,109.427,131.345,108.083,122.849z M114.13,59.561c-3.024,0-5.521,2.328-7.488,6.984
		c-1.872,4.32-2.808,9.336-2.808,15.047c0,1.873,0.12,3.673,0.36,5.4c3.791-2.976,7.007-6.239,9.647-9.792
		c3.312-4.416,4.849-8.231,4.608-11.447C118.162,61.577,116.722,59.513,114.13,59.561z M109.954,122.705l4.032,25.128
		c6.096-2.064,8.88-6.792,8.353-14.184C121.763,126.017,117.634,122.369,109.954,122.705z"/>
	<path d="M688.726,132.619h-8.639V59.827h8.639V132.619z M692.974,132.619V59.827h2.881v72.792H692.974z M702.909,80.203
		c0.336,1.104,0.648,2.208,0.938,3.312c0.527,1.633,1.295,2.881,2.303,3.744c1.393,1.152,3.289,1.705,5.689,1.656
		c4.512-0.048,6.768-4.224,6.768-12.527c0-3.552-0.529-6.744-1.584-9.576c-1.344-3.695-3.264-5.544-5.76-5.544
		c-2.594,0-4.826,0.504-6.697,1.512c-1.584,0.816-2.375,1.56-2.375,2.231c0,0.337,0.287,0.457,0.863,0.36
		c0.863-0.191,1.607-0.287,2.232-0.287c2.879,0,4.32,1.729,4.32,5.184c0,1.345-0.625,2.497-1.873,3.456
		c-1.057,0.769-2.088,1.152-3.096,1.152c-1.775,0-3.24-0.842-4.393-2.525c-1.008-1.539-1.416-3.029-1.223-4.473
		c0.863-6.107,6.168-8.921,15.912-8.44c3.264,0.145,6.119,1.813,8.568,5.009c2.447,3.195,3.672,7.002,3.672,11.422
		c0,4.564-1.08,8.408-3.24,11.531c-2.449,3.507-5.809,5.236-10.08,5.188c-1.92,0-3.744-0.479-5.473-1.44
		c-0.863-0.575-1.703-1.151-2.52-1.728c-0.432,0.48-0.936,1.704-1.512,3.672c-0.529,1.729-0.793,2.76-0.793,3.096
		c0,0.287,0.264,1.319,0.793,3.096c0.576,1.92,1.08,3.144,1.512,3.672c0.816-0.576,1.656-1.152,2.52-1.728
		c1.729-0.96,3.553-1.464,5.473-1.512c4.271,0,7.631,1.753,10.08,5.261c2.16,3.123,3.24,6.966,3.24,11.53
		c0,4.42-1.225,8.215-3.672,11.387c-2.449,3.17-5.305,4.852-8.568,5.044c-9.744,0.48-15.049-2.333-15.912-8.44
		c-0.193-1.443,0.215-2.934,1.223-4.473c1.152-1.731,2.617-2.597,4.393-2.597c1.008,0,2.039,0.407,3.096,1.224
		c1.248,0.912,1.873,2.063,1.873,3.456c0,3.408-1.514,5.112-4.537,5.112c-0.576,0-1.248-0.072-2.016-0.216
		c-0.527-0.145-0.791-0.049-0.791,0.288c0,0.623,0.814,1.392,2.447,2.304c1.969,1.056,4.152,1.56,6.553,1.512
		c2.496,0,4.416-1.849,5.76-5.544c1.055-2.881,1.584-6.072,1.584-9.576c0-8.352-2.256-12.527-6.768-12.527
		c-3.408,0-5.762,1.151-7.057,3.456c-0.721,1.728-1.441,3.432-2.16,5.111c0.191-5.473-1.609-10.752-5.4-15.84
		C701.11,91.1,703.005,85.771,702.909,80.203z"/>
	<path d="M538.715,150.846h-8.639V78.054h8.639V150.846z M542.963,150.846V78.054h2.881v72.792H542.963z M552.898,98.43
		c0.336,1.104,0.648,2.208,0.938,3.312c0.527,1.633,1.295,2.881,2.303,3.744c1.393,1.152,3.289,1.705,5.689,1.656
		c4.512-0.048,6.768-4.224,6.768-12.527c0-3.552-0.529-6.744-1.584-9.576c-1.344-3.695-3.264-5.544-5.76-5.544
		c-2.594,0-4.826,0.504-6.697,1.512c-1.584,0.816-2.375,1.56-2.375,2.231c0,0.337,0.287,0.457,0.863,0.36
		c0.863-0.191,1.607-0.287,2.232-0.287c2.879,0,4.32,1.729,4.32,5.184c0,1.345-0.625,2.497-1.873,3.456
		c-1.057,0.769-2.088,1.152-3.096,1.152c-1.775,0-3.24-0.842-4.393-2.525c-1.008-1.539-1.416-3.029-1.223-4.473
		c0.863-6.107,6.168-8.921,15.912-8.44c3.264,0.145,6.119,1.813,8.568,5.009c2.447,3.195,3.672,7.002,3.672,11.422
		c0,4.564-1.08,8.408-3.24,11.531c-2.449,3.507-5.809,5.236-10.08,5.188c-1.92,0-3.744-0.479-5.473-1.44
		c-0.863-0.575-1.703-1.151-2.52-1.728c-0.432,0.48-0.936,1.704-1.512,3.672c-0.529,1.729-0.793,2.76-0.793,3.096
		c0,0.287,0.264,1.319,0.793,3.096c0.576,1.92,1.08,3.144,1.512,3.672c0.816-0.576,1.656-1.152,2.52-1.728
		c1.729-0.96,3.553-1.464,5.473-1.512c4.271,0,7.631,1.753,10.08,5.261c2.16,3.123,3.24,6.966,3.24,11.53
		c0,4.42-1.225,8.215-3.672,11.387c-2.449,3.17-5.305,4.852-8.568,5.044c-9.744,0.48-15.049-2.333-15.912-8.44
		c-0.193-1.443,0.215-2.934,1.223-4.473c1.152-1.731,2.617-2.597,4.393-2.597c1.008,0,2.039,0.407,3.096,1.224
		c1.248,0.912,1.873,2.063,1.873,3.456c0,3.408-1.514,5.112-4.537,5.112c-0.576,0-1.248-0.072-2.016-0.216
		c-0.527-0.145-0.791-0.049-0.791,0.288c0,0.623,0.814,1.392,2.447,2.304c1.969,1.056,4.152,1.56,6.553,1.512
		c2.496,0,4.416-1.849,5.76-5.544c1.055-2.881,1.584-6.072,1.584-9.576c0-8.352-2.256-12.527-6.768-12.527
		c-3.408,0-5.762,1.151-7.057,3.456c-0.721,1.728-1.441,3.432-2.16,5.111c0.191-5.473-1.609-10.752-5.4-15.84
		C551.1,109.326,552.994,103.998,552.898,98.43z"/>
	<path d="M388.703,169.072h-8.639V96.28h8.639V169.072z M392.951,169.072V96.28h2.881v72.792H392.951z M402.887,116.656
		c0.336,1.104,0.648,2.208,0.938,3.312c0.527,1.633,1.295,2.881,2.303,3.744c1.393,1.152,3.289,1.705,5.689,1.656
		c4.512-0.048,6.768-4.224,6.768-12.527c0-3.552-0.529-6.744-1.584-9.576c-1.344-3.695-3.264-5.544-5.76-5.544
		c-2.594,0-4.826,0.504-6.697,1.512c-1.584,0.816-2.375,1.56-2.375,2.231c0,0.337,0.287,0.457,0.863,0.36
		c0.863-0.191,1.607-0.287,2.232-0.287c2.879,0,4.32,1.729,4.32,5.184c0,1.345-0.625,2.497-1.873,3.456
		c-1.057,0.769-2.088,1.152-3.096,1.152c-1.775,0-3.24-0.842-4.393-2.525c-1.008-1.539-1.416-3.029-1.223-4.473
		c0.863-6.107,6.168-8.921,15.912-8.44c3.264,0.145,6.119,1.813,8.568,5.009c2.447,3.195,3.672,7.002,3.672,11.422
		c0,4.564-1.08,8.408-3.24,11.531c-2.449,3.507-5.809,5.236-10.08,5.188c-1.92,0-3.744-0.479-5.473-1.44
		c-0.863-0.575-1.703-1.151-2.52-1.728c-0.432,0.48-0.936,1.704-1.512,3.672c-0.529,1.729-0.793,2.76-0.793,3.096
		c0,0.287,0.264,1.319,0.793,3.096c0.576,1.92,1.08,3.144,1.512,3.672c0.816-0.576,1.656-1.152,2.52-1.728
		c1.729-0.96,3.553-1.464,5.473-1.512c4.271,0,7.631,1.753,10.08,5.261c2.16,3.123,3.24,6.966,3.24,11.53
		c0,4.42-1.225,8.215-3.672,11.387c-2.449,3.17-5.305,4.852-8.568,5.044c-9.744,0.48-15.049-2.333-15.912-8.44
		c-0.193-1.443,0.215-2.934,1.223-4.473c1.152-1.731,2.617-2.597,4.393-2.597c1.008,0,2.039,0.407,3.096,1.224
		c1.248,0.912,1.873,2.063,1.873,3.456c0,3.408-1.514,5.112-4.537,5.112c-0.576,0-1.248-0.072-2.016-0.216
		c-0.527-0.145-0.791-0.049-0.791,0.288c0,0.623,0.814,1.392,2.447,2.304c1.969,1.056,4.152,1.56,6.553,1.512
		c2.496,0,4.416-1.849,5.76-5.544c1.055-2.881,1.584-6.072,1.584-9.576c0-8.352-2.256-12.527-6.768-12.527
		c-3.408,0-5.762,1.151-7.057,3.456c-0.721,1.728-1.441,3.432-2.16,5.111c0.191-5.473-1.609-10.752-5.4-15.84
		C401.088,127.553,402.982,122.225,402.887,116.656z"/>
	<path d="M838.737,114.393h-8.64V41.601h8.64V114.393z M842.985,114.393V41.601h2.88v72.792H842.985z M852.921,61.977
		c0.336,1.104,0.648,2.208,0.937,3.312c0.527,1.633,1.296,2.881,2.304,3.744c1.392,1.152,3.288,1.705,5.688,1.656
		c4.512-0.048,6.768-4.224,6.768-12.527c0-3.552-0.528-6.744-1.584-9.576c-1.344-3.695-3.264-5.544-5.76-5.544
		c-2.593,0-4.825,0.504-6.696,1.512c-1.584,0.816-2.376,1.56-2.376,2.231c0,0.337,0.288,0.457,0.864,0.36
		c0.863-0.191,1.607-0.287,2.231-0.287c2.88,0,4.32,1.729,4.32,5.184c0,1.345-0.624,2.497-1.872,3.456
		c-1.057,0.769-2.088,1.152-3.096,1.152c-1.776,0-3.24-0.842-4.393-2.525c-1.008-1.539-1.416-3.029-1.224-4.473
		c0.863-6.107,6.168-8.921,15.912-8.44c3.264,0.145,6.12,1.813,8.568,5.009c2.447,3.195,3.672,7.002,3.672,11.422
		c0,4.564-1.08,8.408-3.24,11.531c-2.448,3.507-5.809,5.236-10.08,5.188c-1.92,0-3.744-0.479-5.472-1.44
		c-0.864-0.575-1.704-1.151-2.521-1.728c-0.432,0.48-0.936,1.704-1.512,3.672c-0.528,1.729-0.792,2.76-0.792,3.096
		c0,0.287,0.264,1.319,0.792,3.096c0.576,1.92,1.08,3.144,1.512,3.672c0.816-0.576,1.656-1.152,2.521-1.728
		c1.728-0.96,3.552-1.464,5.472-1.512c4.271,0,7.632,1.753,10.08,5.261c2.16,3.123,3.24,6.966,3.24,11.53
		c0,4.42-1.225,8.215-3.672,11.387c-2.448,3.17-5.305,4.852-8.568,5.044c-9.744,0.48-15.049-2.333-15.912-8.44
		c-0.192-1.443,0.216-2.934,1.224-4.473c1.152-1.731,2.616-2.597,4.393-2.597c1.008,0,2.039,0.407,3.096,1.224
		c1.248,0.912,1.872,2.063,1.872,3.456c0,3.408-1.513,5.112-4.536,5.112c-0.576,0-1.248-0.072-2.016-0.216
		c-0.528-0.145-0.792-0.049-0.792,0.288c0,0.623,0.815,1.392,2.448,2.304c1.968,1.056,4.151,1.56,6.552,1.512
		c2.496,0,4.416-1.849,5.76-5.544c1.056-2.881,1.584-6.072,1.584-9.576c0-8.352-2.256-12.527-6.768-12.527
		c-3.408,0-5.761,1.151-7.057,3.456c-0.721,1.728-1.44,3.432-2.159,5.111c0.191-5.473-1.609-10.752-5.4-15.84
		C851.121,72.873,853.017,67.545,852.921,61.977z"/>
	<path d="M988.748,96.166h-8.64V23.374h8.64V96.166z M992.996,96.166V23.374h2.88v72.792H992.996z M1002.932,43.75
		c0.336,1.104,0.648,2.208,0.937,3.312c0.527,1.633,1.296,2.881,2.304,3.744c1.392,1.152,3.288,1.705,5.688,1.656
		c4.512-0.048,6.768-4.224,6.768-12.527c0-3.552-0.528-6.744-1.584-9.576c-1.344-3.695-3.264-5.544-5.76-5.544
		c-2.593,0-4.825,0.504-6.696,1.512c-1.584,0.816-2.376,1.56-2.376,2.231c0,0.337,0.288,0.457,0.864,0.36
		c0.863-0.191,1.607-0.287,2.231-0.287c2.88,0,4.32,1.729,4.32,5.184c0,1.345-0.624,2.497-1.872,3.456
		c-1.057,0.769-2.088,1.152-3.096,1.152c-1.776,0-3.24-0.842-4.393-2.525c-1.008-1.539-1.416-3.029-1.224-4.473
		c0.863-6.107,6.168-8.921,15.912-8.44c3.264,0.145,6.12,1.813,8.568,5.009c2.447,3.195,3.672,7.002,3.672,11.422
		c0,4.564-1.08,8.408-3.24,11.531c-2.448,3.507-5.809,5.236-10.08,5.188c-1.92,0-3.744-0.479-5.472-1.44
		c-0.864-0.575-1.704-1.151-2.521-1.728c-0.432,0.48-0.936,1.704-1.512,3.672c-0.528,1.729-0.792,2.76-0.792,3.096
		c0,0.287,0.264,1.319,0.792,3.096c0.576,1.92,1.08,3.144,1.512,3.672c0.816-0.576,1.656-1.152,2.521-1.728
		c1.728-0.96,3.552-1.464,5.472-1.512c4.271,0,7.632,1.753,10.08,5.261c2.16,3.123,3.24,6.966,3.24,11.53
		c0,4.42-1.225,8.215-3.672,11.387c-2.448,3.17-5.305,4.852-8.568,5.044c-9.744,0.48-15.049-2.333-15.912-8.44
		c-0.192-1.443,0.216-2.934,1.224-4.473c1.152-1.731,2.616-2.597,4.393-2.597c1.008,0,2.039,0.407,3.096,1.224
		c1.248,0.912,1.872,2.063,1.872,3.456c0,3.408-1.513,5.112-4.536,5.112c-0.576,0-1.248-0.072-2.016-0.216
		c-0.528-0.145-0.792-0.049-0.792,0.288c0,0.623,0.815,1.392,2.448,2.304c1.968,1.056,4.151,1.56,6.552,1.512
		c2.496,0,4.416-1.849,5.76-5.544c1.056-2.881,1.584-6.072,1.584-9.576c0-8.352-2.256-12.527-6.768-12.527
		c-3.408,0-5.761,1.151-7.057,3.456c-0.721,1.728-1.44,3.432-2.159,5.111c0.191-5.473-1.609-10.752-5.4-15.84
		C1001.132,54.646,1003.027,49.318,1002.932,43.75z"/>
	<path d="M1313.936,96.822c-1.488,2.735-3.36,5.423-5.616,8.063c-2.256,2.64-4.656,4.871-7.2,6.695
		c-2.928,2.16-6.552,4.056-10.872,5.688c-2.688,1.008-6.552,1.968-11.592,2.88l-0.504-1.08c2.447-0.816,4.728-1.704,6.84-2.664
		c5.04-2.256,8.808-4.704,11.304-7.343c8.063-8.4,11.976-18.6,11.736-30.598c-0.049-4.031-0.744-7.464-2.088-10.296
		c-1.92-4.079-4.872-6.119-8.856-6.119c-2.832,0-5.544,0.984-8.136,2.952c-2.832,2.112-4.128,4.464-3.888,7.056
		c0.048,0.145,0.144,0.216,0.288,0.216c2.64-0.672,4.584-0.983,5.832-0.936c1.68,0.049,3.071,0.864,4.176,2.448
		c1.008,1.393,1.512,3.048,1.512,4.968c0,2.063-0.589,3.768-1.765,5.112c-1.176,1.343-2.82,2.016-4.932,2.016
		c-2.448,0-4.512-0.792-6.191-2.376c-1.824-1.633-2.736-3.769-2.736-6.408c-0.145-6.72,2.52-11.592,7.992-14.616
		c2.976-1.631,6.264-2.471,9.864-2.52c3.695-0.096,7.296,1.068,10.8,3.492s5.928,5.508,7.272,9.251
		c0.815,2.256,1.224,4.68,1.224,7.271c0,2.256-0.288,4.751-0.864,7.487C1316.911,90.342,1315.711,93.462,1313.936,96.822z
		 M1321.207,69.104c-0.049-1.104,0.312-2.015,1.08-2.735c0.768-0.72,1.704-1.104,2.808-1.152c1.104,0,2.052,0.349,2.844,1.044
		c0.792,0.696,1.188,1.597,1.188,2.7c0.048,1.104-0.324,2.053-1.116,2.845s-1.716,1.188-2.771,1.188
		c-1.104,0.048-2.053-0.312-2.845-1.08S1321.207,70.209,1321.207,69.104z M1321.207,87.249c0-1.057,0.384-1.956,1.151-2.699
		c0.768-0.745,1.704-1.141,2.809-1.188c1.104,0,2.04,0.359,2.808,1.08c0.768,0.72,1.176,1.607,1.225,2.664
		c0,1.104-0.385,2.051-1.152,2.844c-0.768,0.791-1.68,1.188-2.735,1.188c-1.104,0.048-2.053-0.312-2.845-1.079
		C1321.675,89.289,1321.255,88.353,1321.207,87.249z"/>
	<path d="M1163.924,115.049c-1.488,2.735-3.36,5.423-5.616,8.063c-2.256,2.64-4.656,4.871-7.2,6.695
		c-2.928,2.16-6.552,4.056-10.872,5.688c-2.688,1.008-6.552,1.968-11.592,2.88l-0.504-1.08c2.447-0.816,4.728-1.704,6.84-2.664
		c5.04-2.256,8.808-4.704,11.304-7.343c8.063-8.4,11.976-18.6,11.736-30.598c-0.049-4.031-0.744-7.464-2.088-10.296
		c-1.92-4.079-4.872-6.119-8.856-6.119c-2.832,0-5.544,0.984-8.136,2.952c-2.832,2.112-4.128,4.464-3.888,7.056
		c0.048,0.145,0.144,0.216,0.288,0.216c2.64-0.672,4.584-0.983,5.832-0.936c1.68,0.049,3.071,0.864,4.176,2.448
		c1.008,1.393,1.512,3.048,1.512,4.968c0,2.063-0.589,3.768-1.765,5.112c-1.176,1.343-2.82,2.016-4.932,2.016
		c-2.448,0-4.512-0.792-6.191-2.376c-1.824-1.633-2.736-3.769-2.736-6.408c-0.145-6.72,2.52-11.592,7.992-14.616
		c2.976-1.631,6.264-2.471,9.864-2.52c3.695-0.096,7.296,1.068,10.8,3.492s5.928,5.508,7.272,9.251
		c0.815,2.256,1.224,4.68,1.224,7.271c0,2.256-0.288,4.751-0.864,7.487C1166.899,108.568,1165.699,111.688,1163.924,115.049z
		 M1171.195,87.331c-0.049-1.104,0.312-2.015,1.08-2.735c0.768-0.72,1.704-1.104,2.808-1.152c1.104,0,2.052,0.349,2.844,1.044
		c0.792,0.696,1.188,1.597,1.188,2.7c0.048,1.104-0.324,2.053-1.116,2.845s-1.716,1.188-2.771,1.188
		c-1.104,0.048-2.053-0.312-2.845-1.08S1171.195,88.436,1171.195,87.331z M1171.195,105.476c0-1.057,0.384-1.956,1.151-2.699
		c0.768-0.745,1.704-1.141,2.809-1.188c1.104,0,2.04,0.359,2.808,1.08c0.768,0.72,1.176,1.607,1.225,2.664
		c0,1.104-0.385,2.051-1.152,2.844c-0.768,0.791-1.68,1.188-2.735,1.188c-1.104,0.048-2.053-0.312-2.845-1.079
		C1171.663,107.516,1171.243,106.579,1171.195,105.476z"/>
	<path d="M1463.946,78.596c-1.488,2.735-3.36,5.423-5.616,8.063c-2.256,2.64-4.656,4.871-7.2,6.695
		c-2.928,2.16-6.552,4.056-10.872,5.688c-2.688,1.008-6.552,1.968-11.592,2.88l-0.504-1.08c2.447-0.816,4.728-1.704,6.84-2.664
		c5.04-2.256,8.808-4.704,11.304-7.343c8.063-8.4,11.976-18.6,11.736-30.598c-0.049-4.031-0.744-7.464-2.088-10.296
		c-1.92-4.079-4.872-6.119-8.856-6.119c-2.832,0-5.544,0.984-8.136,2.952c-2.832,2.112-4.128,4.464-3.888,7.056
		c0.048,0.145,0.144,0.216,0.288,0.216c2.64-0.672,4.584-0.983,5.832-0.936c1.68,0.049,3.071,0.864,4.176,2.448
		c1.008,1.393,1.512,3.048,1.512,4.968c0,2.063-0.589,3.768-1.765,5.112c-1.176,1.343-2.82,2.016-4.932,2.016
		c-2.448,0-4.512-0.792-6.191-2.376c-1.824-1.633-2.736-3.769-2.736-6.408c-0.145-6.72,2.52-11.592,7.992-14.616
		c2.976-1.631,6.264-2.471,9.864-2.52c3.695-0.096,7.296,1.068,10.8,3.492s5.928,5.508,7.272,9.251
		c0.815,2.256,1.224,4.68,1.224,7.271c0,2.256-0.288,4.751-0.864,7.487C1466.922,72.115,1465.722,75.235,1463.946,78.596z
		 M1471.218,50.878c-0.049-1.104,0.312-2.015,1.08-2.735c0.768-0.72,1.704-1.104,2.808-1.152c1.104,0,2.052,0.349,2.844,1.044
		c0.792,0.696,1.188,1.597,1.188,2.7c0.048,1.104-0.324,2.053-1.116,2.845s-1.716,1.188-2.771,1.188
		c-1.104,0.048-2.053-0.312-2.845-1.08S1471.218,51.982,1471.218,50.878z M1471.218,69.022c0-1.057,0.384-1.956,1.151-2.699
		c0.768-0.745,1.704-1.141,2.809-1.188c1.104,0,2.04,0.359,2.808,1.08c0.768,0.72,1.176,1.607,1.225,2.664
		c0,1.104-0.385,2.051-1.152,2.844c-0.768,0.791-1.68,1.188-2.735,1.188c-1.104,0.048-2.053-0.312-2.845-1.079
		C1471.686,71.062,1471.266,70.126,1471.218,69.022z"/>
	<g>
		<path d="M17.871,191.266h16.437l0.281,7h-0.938c-0.42-2.404-1.008-3.971-1.766-4.699c-0.867-0.847-2.105-1.27-3.711-1.27h-3.246
			c-0.32,0-0.552,0.075-0.699,0.225c-0.146,0.15-0.219,0.376-0.219,0.676v7.303h1.739c0.967,0,1.739-0.319,2.314-0.956
			c0.575-0.638,0.886-1.621,0.931-2.95h0.984v9.125h-0.984c-0.063-1.516-0.374-2.598-0.931-3.246
			c-0.558-0.648-1.329-0.973-2.314-0.973h-1.739v7.709c0,0.456,0.109,0.777,0.328,0.964s0.596,0.28,1.133,0.28h2.102v1.031h-9.703
			v-1.031h2.074c0.419,0,0.717-0.085,0.894-0.253c0.177-0.169,0.266-0.444,0.266-0.827v-16.065c0-0.364-0.093-0.624-0.28-0.778
			c-0.187-0.155-0.512-0.232-0.976-0.232h-1.979V191.266z"/>
		<path d="M35.796,198.672l4.609-0.234v5.181c0.493-1.704,1.086-2.993,1.78-3.868s1.552-1.312,2.574-1.312
			c0.694,0,1.248,0.212,1.663,0.636c0.416,0.424,0.623,0.991,0.623,1.702c0,0.574-0.139,1.021-0.416,1.34
			c-0.277,0.318-0.627,0.479-1.045,0.479c-0.41,0-0.74-0.137-0.99-0.41c-0.252-0.273-0.377-0.643-0.377-1.106
			c0-0.301,0.072-0.583,0.219-0.848c0.135-0.236,0.203-0.378,0.203-0.423c0-0.137-0.086-0.205-0.26-0.205
			c-0.375,0-0.799,0.219-1.273,0.655c-0.657,0.611-1.164,1.449-1.52,2.516c-0.549,1.658-0.822,2.983-0.822,3.977v2.747
			c0,0.31,0.109,0.547,0.328,0.711s0.594,0.246,1.123,0.246h1.627v1.031h-7.969v-1.031h1.275c0.43,0,0.754-0.085,0.975-0.253
			c0.219-0.169,0.328-0.372,0.328-0.608v-8.161c0-0.619-0.133-1.072-0.396-1.359c-0.266-0.287-0.645-0.431-1.137-0.431h-1.123
			V198.672z"/>
		<path d="M60.458,205.172h-9.172c0.046,1.945,0.41,3.318,1.094,4.118c0.784,0.9,1.782,1.351,2.994,1.351
			c1.787,0,3.223-1.016,4.307-3.047l0.887,0.382c-1.331,2.589-3.256,3.884-5.771,3.884c-1.715,0-3.158-0.619-4.33-1.857
			s-1.758-2.823-1.758-4.754c0-2.075,0.577-3.753,1.73-5.032c1.154-1.279,2.574-1.919,4.262-1.919c1.24,0,2.311,0.318,3.215,0.956
			c0.902,0.639,1.582,1.554,2.037,2.748C60.271,202.839,60.44,203.896,60.458,205.172z M51.286,204.203h5.555
			c0.328,0,0.584-0.111,0.766-0.335c0.183-0.223,0.273-0.603,0.273-1.14c0-1.001-0.312-1.852-0.938-2.553
			c-0.624-0.7-1.36-1.051-2.209-1.051c-0.947,0-1.753,0.423-2.414,1.27C51.658,201.24,51.313,202.51,51.286,204.203z"/>
		<path d="M62.442,198.672l4.25-0.266c0.17,0.802,0.295,1.74,0.375,2.816c0.575-0.929,1.252-1.625,2.033-2.089
			c0.779-0.465,1.662-0.696,2.648-0.696c0.848,0,1.561,0.166,2.135,0.499c0.574,0.332,1.035,0.858,1.383,1.578
			c0.346,0.721,0.52,1.526,0.52,2.42v6.233c0,0.465,0.105,0.795,0.314,0.991c0.209,0.195,0.56,0.294,1.051,0.294h0.9v1.031h-6.75
			v-1.031h0.641c0.602,0,1.02-0.096,1.256-0.287s0.354-0.479,0.354-0.862v-5.483c0-1.193-0.182-2.078-0.547-2.652
			c-0.51-0.82-1.285-1.23-2.326-1.23c-1.029,0-1.89,0.414-2.578,1.244c-0.688,0.829-1.033,1.91-1.033,3.24v4.745
			c0,0.466,0.107,0.796,0.32,0.992c0.215,0.195,0.566,0.294,1.059,0.294h0.887v1.031h-6.766v-1.031h0.887
			c0.445,0,0.783-0.092,1.016-0.273c0.232-0.183,0.348-0.41,0.348-0.684v-8.267c0-0.547-0.147-0.961-0.443-1.244
			c-0.295-0.282-0.721-0.423-1.275-0.423h-0.656V198.672z"/>
		<path d="M89.335,207.672l0.883,0.26c-0.711,2.618-2.279,3.928-4.705,3.928c-1.778,0-3.232-0.588-4.363-1.762
			c-1.131-1.175-1.697-2.736-1.697-4.686c0-2.258,0.621-4.008,1.861-5.251c1.242-1.243,2.701-1.864,4.381-1.864
			c1.259,0,2.299,0.346,3.12,1.038s1.231,1.462,1.231,2.309c0,0.51-0.152,0.932-0.459,1.264c-0.307,0.333-0.67,0.499-1.09,0.499
			c-0.41,0-0.758-0.141-1.041-0.423c-0.283-0.281-0.426-0.622-0.426-1.021s0.156-0.78,0.469-1.144
			c0.146-0.173,0.219-0.309,0.219-0.409c0-0.263-0.178-0.52-0.533-0.77c-0.355-0.249-0.84-0.374-1.451-0.374
			c-1.113,0-1.958,0.404-2.533,1.214c-0.821,1.174-1.232,2.721-1.232,4.64c0,1.829,0.365,3.214,1.096,4.155
			c0.73,0.942,1.662,1.413,2.793,1.413C87.417,210.688,88.577,209.682,89.335,207.672z"/>
		<path d="M91.646,191.266l4.859-0.234v9.877c0.674-0.875,1.398-1.529,2.172-1.962c0.774-0.434,1.594-0.649,2.459-0.649
			c0.82,0,1.557,0.195,2.213,0.587c0.51,0.31,0.945,0.852,1.305,1.626c0.359,0.773,0.539,1.688,0.539,2.745v6.078
			c0,0.392,0.102,0.676,0.303,0.854c0.2,0.178,0.516,0.267,0.945,0.267h1.096v1.031h-6.922v-1.031h0.768
			c0.583,0,0.986-0.094,1.211-0.28c0.223-0.187,0.334-0.466,0.334-0.839v-6.074c0-1.064-0.257-1.895-0.771-2.491
			c-0.515-0.596-1.173-0.894-1.975-0.894c-0.629,0-1.211,0.168-1.748,0.505c-0.539,0.337-0.994,0.849-1.367,1.535
			c-0.373,0.688-0.561,1.413-0.561,2.177v5.105c0,0.455,0.096,0.778,0.288,0.969c0.192,0.191,0.507,0.287,0.944,0.287h1.096v1.031
			h-6.781v-1.031h0.768c0.52,0,0.889-0.103,1.107-0.308s0.328-0.521,0.328-0.949v-15.274c0-0.546-0.143-0.953-0.43-1.223
			c-0.287-0.269-0.703-0.402-1.25-0.402h-0.93V191.266z"/>
		<path d="M116.294,198.672h6.297v0.938c-0.838,0.018-1.373,0.093-1.604,0.225c-0.232,0.132-0.349,0.32-0.349,0.566
			c0,0.2,0.041,0.4,0.121,0.601l3.418,7.546l3.098-7.317c0.047-0.127,0.068-0.254,0.068-0.381c0-0.663-0.656-1.076-1.971-1.239
			v-0.938h5.312v0.938c-0.538,0.054-0.967,0.199-1.287,0.435c-0.318,0.235-0.565,0.552-0.738,0.949l-4.702,10.866h-0.72
			l-5.059-11.166c-0.182-0.397-0.402-0.676-0.662-0.834s-0.666-0.241-1.223-0.25V198.672z"/>
		<path d="M131.63,198.672l5.109-0.156v11.021c0,0.302,0.074,0.516,0.221,0.644c0.209,0.182,0.475,0.273,0.795,0.273h1.453v1.031
			h-7.297v-1.031h1.354c0.401,0,0.695-0.099,0.883-0.294c0.186-0.196,0.279-0.48,0.279-0.854v-8.06c0-0.51-0.146-0.895-0.438-1.154
			c-0.293-0.259-0.728-0.389-1.303-0.389h-1.057V198.672z M135.194,191.016c0.41,0,0.77,0.154,1.08,0.465
			c0.311,0.31,0.465,0.675,0.465,1.095c0,0.41-0.15,0.766-0.451,1.066c-0.301,0.302-0.661,0.452-1.08,0.452
			c-0.42,0-0.783-0.153-1.088-0.459c-0.307-0.305-0.459-0.663-0.459-1.073c0-0.411,0.156-0.771,0.465-1.081
			C134.437,191.17,134.792,191.016,135.194,191.016z"/>
		<path d="M146.743,198.297c1.723,0,3.169,0.621,4.34,1.864s1.756,2.88,1.756,4.91c0,1.402-0.262,2.597-0.785,3.585
			s-1.271,1.769-2.242,2.343c-0.971,0.573-2.016,0.86-3.137,0.86c-1.658,0-3.063-0.629-4.217-1.885
			c-1.152-1.257-1.729-2.887-1.729-4.89c0-2.013,0.578-3.647,1.736-4.903C143.622,198.925,145.049,198.297,146.743,198.297z
			 M146.743,199.266c-1.02,0-1.857,0.462-2.514,1.386c-0.656,0.925-0.984,2.384-0.984,4.379c0,2.03,0.326,3.515,0.978,4.453
			c0.651,0.938,1.491,1.407,2.521,1.407c1.066,0,1.93-0.47,2.59-1.407c0.66-0.938,0.99-2.473,0.99-4.604
			c0-1.977-0.325-3.406-0.977-4.289C148.695,199.707,147.827,199.266,146.743,199.266z"/>
		<path d="M159.558,191.031v18.561c0,0.255,0.078,0.451,0.232,0.588c0.229,0.182,0.507,0.273,0.836,0.273h1.354v1.031h-7.266v-1.031
			h1.287c0.419,0,0.731-0.101,0.938-0.301c0.205-0.2,0.307-0.482,0.307-0.847v-15.574c0-0.456-0.123-0.788-0.369-0.998
			c-0.338-0.291-0.754-0.437-1.246-0.437h-1.15v-1.031L159.558,191.031z"/>
		<path d="M163.267,198.672l5.109-0.156v11.021c0,0.302,0.074,0.516,0.221,0.644c0.209,0.182,0.475,0.273,0.795,0.273h1.453v1.031
			h-7.297v-1.031h1.354c0.401,0,0.695-0.099,0.883-0.294c0.186-0.196,0.279-0.48,0.279-0.854v-8.06c0-0.51-0.146-0.895-0.438-1.154
			c-0.293-0.259-0.728-0.389-1.303-0.389h-1.057V198.672z M166.831,191.016c0.41,0,0.77,0.154,1.08,0.465
			c0.311,0.31,0.465,0.675,0.465,1.095c0,0.41-0.15,0.766-0.451,1.066c-0.301,0.302-0.661,0.452-1.08,0.452
			c-0.42,0-0.783-0.153-1.088-0.459c-0.307-0.305-0.459-0.663-0.459-1.073c0-0.411,0.156-0.771,0.465-1.081
			C166.073,191.17,166.429,191.016,166.831,191.016z"/>
		<path d="M172.351,198.672l4.25-0.266c0.17,0.802,0.295,1.74,0.375,2.816c0.575-0.929,1.252-1.625,2.033-2.089
			c0.779-0.465,1.662-0.696,2.648-0.696c0.848,0,1.561,0.166,2.135,0.499c0.574,0.332,1.035,0.858,1.383,1.578
			c0.346,0.721,0.52,1.526,0.52,2.42v6.233c0,0.465,0.105,0.795,0.314,0.991c0.209,0.195,0.56,0.294,1.051,0.294h0.9v1.031h-6.75
			v-1.031h0.641c0.602,0,1.02-0.096,1.256-0.287s0.354-0.479,0.354-0.862v-5.483c0-1.193-0.182-2.078-0.547-2.652
			c-0.51-0.82-1.285-1.23-2.326-1.23c-1.029,0-1.89,0.414-2.578,1.244c-0.688,0.829-1.033,1.91-1.033,3.24v4.745
			c0,0.466,0.107,0.796,0.32,0.992c0.215,0.195,0.566,0.294,1.059,0.294h0.887v1.031h-6.766v-1.031h0.887
			c0.445,0,0.783-0.092,1.016-0.273c0.232-0.183,0.348-0.41,0.348-0.684v-8.267c0-0.547-0.147-0.961-0.443-1.244
			c-0.295-0.282-0.721-0.423-1.275-0.423h-0.656V198.672z"/>
		<path d="M211.964,191.266h16.417l0.394,7.641h-0.938c-0.621-4.49-2.248-6.734-4.881-6.734c-0.529,0-0.893,0.091-1.09,0.273
			c-0.196,0.182-0.295,0.482-0.295,0.901v16.149c0,0.328,0.096,0.569,0.287,0.725c0.191,0.154,0.506,0.232,0.943,0.232h2.035v1.031
			h-9.391v-1.031h2.324c0.311,0,0.547-0.078,0.711-0.232c0.164-0.155,0.246-0.36,0.246-0.615v-16.382
			c0-0.346-0.104-0.607-0.314-0.785c-0.209-0.178-0.546-0.267-1.01-0.267c-1.322,0-2.424,0.623-3.307,1.871
			c-0.729,1.029-1.253,2.65-1.572,4.863h-1L211.964,191.266z"/>
		<path d="M230.106,198.672l4.609-0.234v5.181c0.493-1.704,1.086-2.993,1.78-3.868s1.552-1.312,2.575-1.312
			c0.693,0,1.248,0.212,1.662,0.636c0.416,0.424,0.623,0.991,0.623,1.702c0,0.574-0.139,1.021-0.416,1.34
			c-0.277,0.318-0.627,0.479-1.045,0.479c-0.41,0-0.74-0.137-0.99-0.41c-0.252-0.273-0.377-0.643-0.377-1.106
			c0-0.301,0.072-0.583,0.219-0.848c0.135-0.236,0.203-0.378,0.203-0.423c0-0.137-0.086-0.205-0.26-0.205
			c-0.375,0-0.799,0.219-1.273,0.655c-0.657,0.611-1.164,1.449-1.52,2.516c-0.549,1.658-0.822,2.983-0.822,3.977v2.747
			c0,0.31,0.109,0.547,0.328,0.711s0.594,0.246,1.123,0.246h1.627v1.031h-7.969v-1.031h1.275c0.43,0,0.754-0.085,0.975-0.253
			c0.219-0.169,0.328-0.372,0.328-0.608v-8.161c0-0.619-0.133-1.072-0.396-1.359c-0.266-0.287-0.645-0.431-1.137-0.431h-1.123
			V198.672z"/>
		<path d="M254.77,205.172h-9.173c0.047,1.945,0.41,3.318,1.094,4.118c0.785,0.9,1.783,1.351,2.994,1.351
			c1.787,0,3.223-1.016,4.308-3.047l0.887,0.382c-1.331,2.589-3.257,3.884-5.772,3.884c-1.715,0-3.158-0.619-4.33-1.857
			s-1.758-2.823-1.758-4.754c0-2.075,0.578-3.753,1.73-5.032c1.154-1.279,2.574-1.919,4.262-1.919c1.24,0,2.311,0.318,3.215,0.956
			c0.902,0.639,1.582,1.554,2.038,2.748C254.583,202.839,254.751,203.896,254.77,205.172z M245.597,204.203h5.555
			c0.328,0,0.584-0.111,0.766-0.335c0.184-0.223,0.273-0.603,0.273-1.14c0-1.001-0.312-1.852-0.938-2.553
			c-0.623-0.7-1.359-1.051-2.209-1.051c-0.947,0-1.752,0.423-2.414,1.27C245.97,201.24,245.624,202.51,245.597,204.203z"/>
		<path d="M260.723,191.031v9.534c0.537-0.761,1.133-1.329,1.788-1.705s1.37-0.563,2.144-0.563c1.502,0,2.771,0.587,3.809,1.762
			c1.038,1.175,1.557,2.724,1.557,4.646c0,2.086-0.558,3.769-1.675,5.048c-1.115,1.28-2.498,1.92-4.147,1.92
			c-0.783,0-1.494-0.155-2.132-0.465s-1.294-0.834-1.968-1.572c-0.519,0.829-1.019,1.509-1.5,2.037l-0.562-0.188
			c0.261-1.048,0.391-2.142,0.391-3.28v-14.473c0-0.446-0.157-0.797-0.471-1.052c-0.314-0.256-0.758-0.383-1.331-0.383h-0.573
			v-1.031L260.723,191.031z M264.161,199.516c-1.029,0-1.868,0.447-2.515,1.343c-0.647,0.896-0.971,2.376-0.971,4.439
			c0,1.964,0.319,3.369,0.957,4.215s1.472,1.269,2.501,1.269c0.93,0,1.677-0.419,2.241-1.255c0.711-1.055,1.066-2.56,1.066-4.515
			c0-1.928-0.312-3.325-0.937-4.194C265.881,199.949,265.1,199.516,264.161,199.516z"/>
		<path d="M277.17,191.031v18.561c0,0.255,0.077,0.451,0.232,0.588c0.229,0.182,0.507,0.273,0.835,0.273h1.354v1.031h-7.266v-1.031
			h1.286c0.42,0,0.732-0.101,0.938-0.301s0.308-0.482,0.308-0.847v-15.574c0-0.456-0.123-0.788-0.37-0.998
			c-0.338-0.291-0.753-0.437-1.245-0.437h-1.15v-1.031L277.17,191.031z"/>
		<path d="M293.16,205.172h-9.172c0.046,1.945,0.41,3.318,1.094,4.118c0.784,0.9,1.782,1.351,2.994,1.351
			c1.786,0,3.222-1.016,4.307-3.047l0.887,0.382c-1.331,2.589-3.256,3.884-5.772,3.884c-1.715,0-3.157-0.619-4.329-1.857
			s-1.758-2.823-1.758-4.754c0-2.075,0.577-3.753,1.73-5.032s2.573-1.919,4.261-1.919c1.24,0,2.312,0.318,3.215,0.956
			c0.902,0.639,1.582,1.554,2.038,2.748C292.974,202.839,293.142,203.896,293.16,205.172z M283.988,204.203h5.554
			c0.328,0,0.584-0.111,0.767-0.335c0.183-0.223,0.273-0.603,0.273-1.14c0-1.001-0.312-1.852-0.938-2.553
			c-0.624-0.7-1.36-1.051-2.209-1.051c-0.948,0-1.753,0.423-2.415,1.27C284.36,201.24,284.016,202.51,283.988,204.203z"/>
		<path d="M346.009,192.797l1.229-1.766h1l0.078,7.375h-0.906c-0.564-2.264-1.4-3.915-2.507-4.955
			c-1.106-1.041-2.379-1.561-3.817-1.561c-1.202,0-2.186,0.36-2.95,1.08c-0.766,0.721-1.147,1.601-1.147,2.64
			c0,0.647,0.146,1.216,0.438,1.703c0.291,0.488,0.727,0.885,1.306,1.19c0.578,0.306,1.67,0.631,3.275,0.976
			c2.252,0.49,3.832,0.985,4.737,1.486c0.906,0.501,1.582,1.133,2.028,1.894c0.445,0.761,0.669,1.651,0.669,2.672
			c0,1.822-0.613,3.332-1.839,4.53c-1.227,1.198-2.811,1.798-4.752,1.798c-2.088,0-3.901-0.678-5.442-2.031l-1.545,1.891h-0.984
			v-7.828h0.984c0.383,2.159,1.24,3.863,2.572,5.111c1.331,1.249,2.832,1.873,4.501,1.873c1.35,0,2.451-0.398,3.304-1.196
			c0.853-0.797,1.279-1.765,1.279-2.903c0-0.646-0.159-1.214-0.479-1.701s-0.825-0.897-1.519-1.23
			c-0.692-0.332-2.056-0.736-4.089-1.21c-2.234-0.529-3.757-1.121-4.566-1.777c-1.138-0.929-1.707-2.244-1.707-3.947
			c0-1.776,0.567-3.231,1.701-4.365s2.585-1.7,4.352-1.7c0.847,0,1.653,0.15,2.419,0.45
			C344.396,191.595,345.188,192.096,346.009,192.797z"/>
		<path d="M357.654,198.297c1.722,0,3.169,0.621,4.339,1.864c1.172,1.243,1.757,2.88,1.757,4.91c0,1.402-0.262,2.597-0.786,3.585
			c-0.523,0.988-1.271,1.769-2.241,2.343c-0.971,0.573-2.017,0.86-3.137,0.86c-1.658,0-3.063-0.629-4.217-1.885
			c-1.152-1.257-1.729-2.887-1.729-4.89c0-2.013,0.578-3.647,1.735-4.903C354.533,198.925,355.96,198.297,357.654,198.297z
			 M357.654,199.266c-1.021,0-1.858,0.462-2.515,1.386c-0.655,0.925-0.983,2.384-0.983,4.379c0,2.03,0.325,3.515,0.978,4.453
			c0.65,0.938,1.491,1.407,2.521,1.407c1.065,0,1.929-0.47,2.589-1.407c0.661-0.938,0.991-2.473,0.991-4.604
			c0-1.977-0.325-3.406-0.978-4.289C359.606,199.707,358.738,199.266,357.654,199.266z"/>
		<path d="M369.69,198.438c0.201,0.958,0.32,1.88,0.356,2.766c0.627-1.004,1.286-1.716,1.978-2.136c0.69-0.42,1.445-0.63,2.263-0.63
			c0.873,0,1.707,0.269,2.502,0.806c0.796,0.538,1.44,1.326,1.937,2.365c0.495,1.038,0.743,2.209,0.743,3.513
			c0,2.086-0.608,3.786-1.825,5.098c-1.008,1.094-2.215,1.641-3.622,1.641c-0.799,0-1.521-0.206-2.165-0.616
			s-1.217-1.021-1.716-1.832v5.191c0,0.401,0.096,0.685,0.286,0.85c0.246,0.219,0.586,0.329,1.023,0.329h0.94v0.969h-6.844v-0.969
			h0.94c0.437,0,0.764-0.087,0.982-0.26c0.218-0.174,0.327-0.401,0.327-0.684v-13.48c0-0.629-0.15-1.073-0.45-1.333
			s-0.9-0.403-1.8-0.431v-0.922L369.69,198.438z M373.655,199.688c-0.991,0-1.83,0.478-2.517,1.434s-1.029,2.34-1.029,4.152
			c0,1.83,0.332,3.182,0.995,4.056c0.664,0.874,1.51,1.312,2.537,1.312c0.963,0,1.704-0.374,2.223-1.12
			c0.663-0.983,0.995-2.422,0.995-4.315c0-1.985-0.3-3.401-0.9-4.248C375.359,200.11,374.591,199.688,373.655,199.688z"/>
		<path d="M381.484,198.672l4.609-0.234v5.181c0.493-1.704,1.086-2.993,1.78-3.868c0.693-0.875,1.551-1.312,2.574-1.312
			c0.693,0,1.248,0.212,1.663,0.636s0.623,0.991,0.623,1.702c0,0.574-0.139,1.021-0.417,1.34c-0.277,0.318-0.626,0.479-1.045,0.479
			c-0.41,0-0.74-0.137-0.99-0.41c-0.251-0.273-0.376-0.643-0.376-1.106c0-0.301,0.072-0.583,0.218-0.848
			c0.136-0.236,0.204-0.378,0.204-0.423c0-0.137-0.087-0.205-0.261-0.205c-0.374,0-0.798,0.219-1.272,0.655
			c-0.657,0.611-1.164,1.449-1.521,2.516c-0.548,1.658-0.821,2.983-0.821,3.977v2.747c0,0.31,0.109,0.547,0.328,0.711
			s0.593,0.246,1.122,0.246h1.628v1.031h-7.969v-1.031h1.275c0.43,0,0.754-0.085,0.974-0.253c0.219-0.169,0.329-0.372,0.329-0.608
			v-8.161c0-0.619-0.133-1.072-0.397-1.359s-0.644-0.431-1.136-0.431h-1.123V198.672z"/>
		<path d="M407.668,210.062l0.494,0.768c-0.667,0.686-1.406,1.029-2.218,1.029c-0.621,0-1.145-0.169-1.568-0.505
			c-0.425-0.336-0.797-0.927-1.116-1.771c-0.866,0.908-1.629,1.516-2.285,1.819c-0.657,0.305-1.446,0.457-2.367,0.457
			c-1.313,0-2.313-0.282-2.997-0.847c-0.685-0.563-1.026-1.287-1.026-2.169c0-1.328,0.782-2.432,2.347-3.31s3.646-1.462,6.247-1.753
			v-1.94c0-0.691-0.278-1.283-0.835-1.775c-0.557-0.491-1.264-0.737-2.121-0.737c-0.794,0-1.479,0.163-2.053,0.491
			c-0.411,0.246-0.616,0.487-0.616,0.724c0,0.137,0.108,0.351,0.325,0.642c0.263,0.364,0.394,0.688,0.394,0.97
			c0,0.409-0.132,0.744-0.396,1.003c-0.265,0.26-0.61,0.39-1.038,0.39c-0.455,0-0.835-0.155-1.141-0.465
			c-0.305-0.311-0.457-0.707-0.457-1.189c0-0.902,0.509-1.728,1.525-2.475c1.017-0.748,2.351-1.121,4.001-1.121
			c1.523,0,2.686,0.327,3.488,0.982c0.803,0.664,1.204,1.47,1.204,2.416v6.989c0,0.618,0.101,1.073,0.302,1.364
			c0.201,0.301,0.462,0.451,0.782,0.451C406.899,210.5,407.274,210.354,407.668,210.062z M403.178,204.688
			c-2.32,0.318-3.965,0.836-4.933,1.555c-0.723,0.545-1.083,1.317-1.083,2.317c0,0.7,0.188,1.248,0.562,1.644
			c0.375,0.396,0.863,0.594,1.467,0.594c1.078,0,2.012-0.407,2.802-1.221s1.186-1.834,1.186-3.062V204.688z"/>
		<path d="M409.703,198.672l4.25-0.266c0.169,0.802,0.294,1.74,0.375,2.816c0.575-0.929,1.252-1.625,2.032-2.089
			c0.78-0.465,1.663-0.696,2.648-0.696c0.849,0,1.561,0.166,2.136,0.499c0.574,0.332,1.035,0.858,1.382,1.578
			c0.347,0.721,0.521,1.526,0.521,2.42v6.233c0,0.465,0.104,0.795,0.313,0.991c0.21,0.195,0.561,0.294,1.051,0.294h0.901v1.031
			h-6.75v-1.031h0.641c0.601,0,1.019-0.096,1.255-0.287s0.354-0.479,0.354-0.862v-5.483c0-1.193-0.183-2.078-0.547-2.652
			c-0.511-0.82-1.286-1.23-2.326-1.23c-1.03,0-1.89,0.414-2.579,1.244c-0.688,0.829-1.032,1.91-1.032,3.24v4.745
			c0,0.466,0.106,0.796,0.32,0.992c0.214,0.195,0.566,0.294,1.058,0.294h0.888v1.031h-6.766v-1.031h0.887
			c0.445,0,0.783-0.092,1.016-0.273c0.231-0.183,0.348-0.41,0.348-0.684v-8.267c0-0.547-0.147-0.961-0.443-1.244
			c-0.296-0.282-0.722-0.423-1.276-0.423h-0.655V198.672z"/>
		<path d="M432.836,198.297c1.722,0,3.169,0.621,4.339,1.864c1.172,1.243,1.757,2.88,1.757,4.91c0,1.402-0.262,2.597-0.786,3.585
			c-0.523,0.988-1.271,1.769-2.241,2.343c-0.971,0.573-2.017,0.86-3.137,0.86c-1.658,0-3.063-0.629-4.217-1.885
			c-1.152-1.257-1.729-2.887-1.729-4.89c0-2.013,0.578-3.647,1.735-4.903C429.715,198.925,431.142,198.297,432.836,198.297z
			 M432.836,199.266c-1.021,0-1.858,0.462-2.515,1.386c-0.655,0.925-0.983,2.384-0.983,4.379c0,2.03,0.325,3.515,0.978,4.453
			c0.65,0.938,1.491,1.407,2.521,1.407c1.065,0,1.929-0.47,2.589-1.407c0.661-0.938,0.991-2.473,0.991-4.604
			c0-1.977-0.325-3.406-0.978-4.289C434.788,199.707,433.92,199.266,432.836,199.266z"/>
		<path d="M460.515,191.266h6.756l6.018,15.967l5.544-15.967h6.917v1.031h-1.683c-0.593,0-0.992,0.086-1.197,0.259
			c-0.205,0.174-0.308,0.474-0.308,0.902v15.997c0,0.319,0.123,0.565,0.369,0.738s0.67,0.26,1.272,0.26h1.546v1.031h-9.281v-1.031
			h1.731c0.494,0,0.86-0.094,1.099-0.28s0.357-0.426,0.357-0.718v-17.164l-6.664,19.193h-0.935l-7.183-19.111v14.69
			c0,0.875,0.109,1.528,0.328,1.961s0.531,0.766,0.937,0.998s1.077,0.376,2.017,0.431v1.031h-7.641v-1.031
			c1.251-0.082,2.1-0.351,2.548-0.807c0.447-0.455,0.671-1.261,0.671-2.418v-13.935c0-0.346-0.105-0.599-0.315-0.758
			c-0.21-0.16-0.603-0.239-1.178-0.239h-1.726V191.266z"/>
		<path d="M499.427,205.172h-9.172c0.045,1.945,0.41,3.318,1.094,4.118c0.783,0.9,1.781,1.351,2.994,1.351
			c1.786,0,3.222-1.016,4.307-3.047l0.887,0.382c-1.332,2.589-3.256,3.884-5.772,3.884c-1.714,0-3.157-0.619-4.329-1.857
			s-1.758-2.823-1.758-4.754c0-2.075,0.576-3.753,1.73-5.032c1.153-1.279,2.574-1.919,4.261-1.919c1.24,0,2.312,0.318,3.215,0.956
			c0.902,0.639,1.582,1.554,2.038,2.748C499.239,202.839,499.408,203.896,499.427,205.172z M490.255,204.203h5.554
			c0.329,0,0.584-0.111,0.767-0.335c0.182-0.223,0.273-0.603,0.273-1.14c0-1.001-0.312-1.852-0.938-2.553
			c-0.625-0.7-1.361-1.051-2.209-1.051c-0.948,0-1.754,0.423-2.414,1.27C490.626,201.24,490.282,202.51,490.255,204.203z"/>
		<path d="M502.555,198.672h10.169v0.818l-8.076,10.963h3.932c0.903,0,1.625-0.283,2.164-0.85c0.538-0.566,0.954-1.616,1.246-3.15
			h0.922l-0.303,5.031h-10.775v-0.949l8.045-10.895h-3.407c-0.712,0-1.243,0.098-1.595,0.294c-0.351,0.195-0.654,0.519-0.91,0.97
			c-0.255,0.451-0.492,1.228-0.711,2.33h-1.016L502.555,198.672z"/>
		<path d="M516.021,198.672h10.169v0.818l-8.076,10.963h3.932c0.903,0,1.625-0.283,2.164-0.85c0.538-0.566,0.954-1.616,1.246-3.15
			h0.922l-0.303,5.031H515.3v-0.949l8.045-10.895h-3.407c-0.712,0-1.243,0.098-1.595,0.294c-0.351,0.195-0.654,0.519-0.91,0.97
			c-0.255,0.451-0.492,1.228-0.711,2.33h-1.016L516.021,198.672z"/>
		<path d="M534.374,198.297c1.723,0,3.168,0.621,4.34,1.864c1.17,1.243,1.756,2.88,1.756,4.91c0,1.402-0.262,2.597-0.786,3.585
			c-0.523,0.988-1.271,1.769-2.241,2.343c-0.971,0.573-2.016,0.86-3.137,0.86c-1.658,0-3.064-0.629-4.217-1.885
			c-1.152-1.257-1.729-2.887-1.729-4.89c0-2.013,0.578-3.647,1.735-4.903C531.253,198.925,532.679,198.297,534.374,198.297z
			 M534.374,199.266c-1.021,0-1.858,0.462-2.514,1.386c-0.656,0.925-0.984,2.384-0.984,4.379c0,2.03,0.326,3.515,0.977,4.453
			c0.652,0.938,1.492,1.407,2.521,1.407c1.065,0,1.929-0.47,2.59-1.407c0.66-0.938,0.99-2.473,0.99-4.604
			c0-1.977-0.326-3.406-0.977-4.289C536.325,199.707,535.458,199.266,534.374,199.266z"/>
		<path d="M543.298,204.062h5.531v2.094h-5.531V204.062z"/>
		<path d="M553.216,206.672c0.563,1.566,1.212,2.65,1.943,3.253c0.732,0.602,1.635,0.903,2.708,0.903
			c0.991,0,1.753-0.217,2.285-0.649c0.532-0.434,0.798-0.982,0.798-1.647c0-0.383-0.098-0.718-0.294-1.005s-0.468-0.502-0.814-0.643
			c-0.347-0.142-1.245-0.349-2.694-0.622c-1.387-0.272-2.353-0.56-2.899-0.86c-0.547-0.3-0.973-0.715-1.277-1.243
			c-0.306-0.527-0.458-1.102-0.458-1.721c0-0.938,0.314-1.789,0.944-2.555c0.812-0.974,1.948-1.461,3.408-1.461
			c1.112,0,2.144,0.35,3.093,1.05l0.903-0.956h0.562l0.355,4.562h-0.922c-0.401-1.291-0.944-2.221-1.629-2.789
			c-0.684-0.567-1.527-0.852-2.531-0.852c-0.866,0-1.546,0.211-2.039,0.634c-0.492,0.423-0.738,0.938-0.738,1.548
			c0,0.537,0.229,0.982,0.685,1.337c0.446,0.363,1.322,0.649,2.627,0.856c1.515,0.252,2.5,0.464,2.956,0.635
			c0.749,0.274,1.329,0.696,1.74,1.268c0.411,0.57,0.617,1.268,0.617,2.089c0,1.133-0.445,2.092-1.334,2.877
			c-0.89,0.786-2.019,1.179-3.387,1.179c-1.269,0-2.445-0.414-3.531-1.241l-0.999,1.147h-0.726l-0.273-5.094H553.216z"/>
		<path d="M570.659,198.297c1.723,0,3.168,0.621,4.34,1.864c1.17,1.243,1.756,2.88,1.756,4.91c0,1.402-0.262,2.597-0.786,3.585
			c-0.523,0.988-1.271,1.769-2.241,2.343c-0.971,0.573-2.016,0.86-3.137,0.86c-1.658,0-3.064-0.629-4.217-1.885
			c-1.152-1.257-1.729-2.887-1.729-4.89c0-2.013,0.578-3.647,1.735-4.903C567.538,198.925,568.964,198.297,570.659,198.297z
			 M570.659,199.266c-1.021,0-1.858,0.462-2.514,1.386c-0.656,0.925-0.984,2.384-0.984,4.379c0,2.03,0.326,3.515,0.977,4.453
			c0.652,0.938,1.492,1.407,2.521,1.407c1.065,0,1.929-0.47,2.59-1.407c0.66-0.938,0.99-2.473,0.99-4.604
			c0-1.977-0.326-3.406-0.977-4.289C572.61,199.707,571.743,199.266,570.659,199.266z"/>
		<path d="M582.695,198.438c0.201,0.958,0.319,1.88,0.356,2.766c0.627-1.004,1.286-1.716,1.977-2.136
			c0.691-0.42,1.445-0.63,2.264-0.63c0.873,0,1.707,0.269,2.502,0.806c0.796,0.538,1.441,1.326,1.937,2.365
			c0.495,1.038,0.743,2.209,0.743,3.513c0,2.086-0.608,3.786-1.824,5.098c-1.008,1.094-2.216,1.641-3.623,1.641
			c-0.799,0-1.521-0.206-2.165-0.616s-1.217-1.021-1.716-1.832v5.191c0,0.401,0.096,0.685,0.286,0.85
			c0.245,0.219,0.587,0.329,1.022,0.329h0.941v0.969h-6.844v-0.969h0.941c0.436,0,0.763-0.087,0.981-0.26
			c0.218-0.174,0.327-0.401,0.327-0.684v-13.48c0-0.629-0.15-1.073-0.45-1.333s-0.899-0.403-1.8-0.431v-0.922L582.695,198.438z
			 M586.659,199.688c-0.99,0-1.829,0.478-2.516,1.434s-1.029,2.34-1.029,4.152c0,1.83,0.332,3.182,0.995,4.056
			c0.664,0.874,1.509,1.312,2.536,1.312c0.964,0,1.705-0.374,2.224-1.12c0.663-0.983,0.995-2.422,0.995-4.315
			c0-1.985-0.3-3.401-0.9-4.248C588.364,200.11,587.596,199.688,586.659,199.688z"/>
		<path d="M594.489,198.672l4.609-0.234v5.181c0.492-1.704,1.086-2.993,1.779-3.868c0.694-0.875,1.553-1.312,2.574-1.312
			c0.694,0,1.248,0.212,1.664,0.636c0.415,0.424,0.623,0.991,0.623,1.702c0,0.574-0.139,1.021-0.417,1.34
			c-0.277,0.318-0.626,0.479-1.045,0.479c-0.41,0-0.74-0.137-0.99-0.41c-0.251-0.273-0.376-0.643-0.376-1.106
			c0-0.301,0.072-0.583,0.218-0.848c0.136-0.236,0.204-0.378,0.204-0.423c0-0.137-0.087-0.205-0.26-0.205
			c-0.375,0-0.799,0.219-1.273,0.655c-0.658,0.611-1.164,1.449-1.521,2.516c-0.548,1.658-0.821,2.983-0.821,3.977v2.747
			c0,0.31,0.109,0.547,0.328,0.711s0.593,0.246,1.122,0.246h1.628v1.031h-7.969v-1.031h1.275c0.43,0,0.754-0.085,0.974-0.253
			c0.22-0.169,0.329-0.372,0.329-0.608v-8.161c0-0.619-0.133-1.072-0.397-1.359s-0.644-0.431-1.136-0.431h-1.123V198.672z"/>
		<path d="M620.673,210.062l0.494,0.768c-0.666,0.686-1.406,1.029-2.219,1.029c-0.621,0-1.144-0.169-1.567-0.505
			c-0.425-0.336-0.797-0.927-1.116-1.771c-0.867,0.908-1.629,1.516-2.285,1.819c-0.657,0.305-1.446,0.457-2.367,0.457
			c-1.314,0-2.312-0.282-2.997-0.847c-0.685-0.563-1.026-1.287-1.026-2.169c0-1.328,0.782-2.432,2.347-3.31s3.647-1.462,6.247-1.753
			v-1.94c0-0.691-0.278-1.283-0.835-1.775c-0.557-0.491-1.264-0.737-2.121-0.737c-0.794,0-1.479,0.163-2.053,0.491
			c-0.411,0.246-0.616,0.487-0.616,0.724c0,0.137,0.108,0.351,0.325,0.642c0.263,0.364,0.394,0.688,0.394,0.97
			c0,0.409-0.132,0.744-0.396,1.003c-0.264,0.26-0.609,0.39-1.037,0.39c-0.455,0-0.836-0.155-1.141-0.465
			c-0.305-0.311-0.457-0.707-0.457-1.189c0-0.902,0.508-1.728,1.525-2.475c1.017-0.748,2.351-1.121,4.001-1.121
			c1.523,0,2.686,0.327,3.488,0.982c0.803,0.664,1.204,1.47,1.204,2.416v6.989c0,0.618,0.101,1.073,0.302,1.364
			c0.201,0.301,0.462,0.451,0.782,0.451C619.904,210.5,620.279,210.354,620.673,210.062z M616.183,204.688
			c-2.32,0.318-3.965,0.836-4.934,1.555c-0.721,0.545-1.082,1.317-1.082,2.317c0,0.7,0.188,1.248,0.562,1.644
			c0.375,0.396,0.863,0.594,1.467,0.594c1.077,0,2.012-0.407,2.802-1.221s1.186-1.834,1.186-3.062V204.688z"/>
		<path d="M622.708,198.672l4.25-0.266c0.17,0.802,0.295,1.74,0.375,2.816c0.574-0.929,1.252-1.625,2.032-2.089
			c0.78-0.465,1.663-0.696,2.648-0.696c0.849,0,1.561,0.166,2.136,0.499c0.574,0.332,1.035,0.858,1.382,1.578
			c0.347,0.721,0.521,1.526,0.521,2.42v6.233c0,0.465,0.104,0.795,0.314,0.991c0.209,0.195,0.559,0.294,1.051,0.294h0.9v1.031h-6.75
			v-1.031h0.641c0.601,0,1.019-0.096,1.255-0.287s0.354-0.479,0.354-0.862v-5.483c0-1.193-0.183-2.078-0.547-2.652
			c-0.511-0.82-1.286-1.23-2.326-1.23c-1.03,0-1.891,0.414-2.578,1.244c-0.689,0.829-1.033,1.91-1.033,3.24v4.745
			c0,0.466,0.106,0.796,0.32,0.992c0.214,0.195,0.566,0.294,1.059,0.294h0.887v1.031h-6.766v-1.031h0.887
			c0.445,0,0.783-0.092,1.016-0.273c0.231-0.183,0.348-0.41,0.348-0.684v-8.267c0-0.547-0.148-0.961-0.443-1.244
			c-0.296-0.282-0.722-0.423-1.276-0.423h-0.655V198.672z"/>
		<path d="M645.841,198.297c1.723,0,3.168,0.621,4.34,1.864c1.17,1.243,1.756,2.88,1.756,4.91c0,1.402-0.262,2.597-0.786,3.585
			c-0.523,0.988-1.271,1.769-2.241,2.343c-0.971,0.573-2.016,0.86-3.137,0.86c-1.658,0-3.064-0.629-4.217-1.885
			c-1.152-1.257-1.729-2.887-1.729-4.89c0-2.013,0.578-3.647,1.735-4.903C642.72,198.925,644.146,198.297,645.841,198.297z
			 M645.841,199.266c-1.021,0-1.858,0.462-2.514,1.386c-0.656,0.925-0.984,2.384-0.984,4.379c0,2.03,0.326,3.515,0.977,4.453
			c0.652,0.938,1.492,1.407,2.521,1.407c1.065,0,1.929-0.47,2.59-1.407c0.66-0.938,0.99-2.473,0.99-4.604
			c0-1.977-0.326-3.406-0.977-4.289C647.792,199.707,646.925,199.266,645.841,199.266z"/>
		<path d="M689.271,190.844h0.944l7.251,18.489c0.291,0.746,0.888,1.12,1.789,1.12h0.628v1.031h-8.062v-1.031h0.643
			c0.838,0,1.43-0.092,1.776-0.273c0.236-0.128,0.355-0.323,0.355-0.587c0-0.155-0.032-0.319-0.096-0.492l-1.675-4.288h-7.991
			l-0.948,2.458c-0.246,0.656-0.369,1.175-0.369,1.557c0,0.446,0.207,0.829,0.622,1.147c0.414,0.319,1.019,0.479,1.812,0.479h0.684
			v1.031h-7.328v-1.031c0.784,0,1.403-0.171,1.859-0.513c0.456-0.341,0.875-0.99,1.258-1.946L689.271,190.844z M688.891,194.736
			l-3.616,9.014h7.135L688.891,194.736z"/>
		<path d="M705.494,191.031v18.561c0,0.255,0.077,0.451,0.232,0.588c0.229,0.182,0.507,0.273,0.835,0.273h1.354v1.031h-7.266v-1.031
			h1.286c0.42,0,0.732-0.101,0.938-0.301s0.308-0.482,0.308-0.847v-15.574c0-0.456-0.123-0.788-0.37-0.998
			c-0.338-0.291-0.753-0.437-1.245-0.437h-1.15v-1.031L705.494,191.031z"/>
		<path d="M712.828,193.453h0.922v5.219h4.141v1.266h-4.141v8.207c0,0.71,0.169,1.254,0.506,1.632s0.765,0.567,1.284,0.567
			c0.619,0,1.148-0.287,1.585-0.861c0.438-0.573,0.692-1.521,0.766-2.842h0.922c-0.055,1.704-0.442,2.969-1.162,3.794
			c-0.721,0.824-1.655,1.237-2.804,1.237c-1.058,0-1.885-0.289-2.482-0.868c-0.597-0.578-0.896-1.336-0.896-2.274v-8.592h-2.234
			v-0.963c1.015-0.174,1.788-0.597,2.318-1.271C712.339,196.692,712.765,195.275,712.828,193.453z"/>
		<path d="M726.395,198.297c1.722,0,3.169,0.621,4.339,1.864c1.172,1.243,1.757,2.88,1.757,4.91c0,1.402-0.262,2.597-0.786,3.585
			c-0.523,0.988-1.271,1.769-2.241,2.343c-0.971,0.573-2.017,0.86-3.137,0.86c-1.658,0-3.063-0.629-4.217-1.885
			c-1.152-1.257-1.729-2.887-1.729-4.89c0-2.013,0.578-3.647,1.735-4.903C723.273,198.925,724.7,198.297,726.395,198.297z
			 M726.395,199.266c-1.021,0-1.858,0.462-2.515,1.386c-0.655,0.925-0.983,2.384-0.983,4.379c0,2.03,0.325,3.515,0.978,4.453
			c0.65,0.938,1.491,1.407,2.521,1.407c1.065,0,1.929-0.47,2.589-1.407c0.661-0.938,0.991-2.473,0.991-4.604
			c0-1.977-0.325-3.406-0.978-4.289C728.347,199.707,727.479,199.266,726.395,199.266z"/>
		<path d="M811.607,191.266h16.417l0.395,7.641h-0.938c-0.621-4.49-2.248-6.734-4.881-6.734c-0.53,0-0.894,0.091-1.09,0.273
			c-0.197,0.182-0.295,0.482-0.295,0.901v16.149c0,0.328,0.096,0.569,0.287,0.725c0.191,0.154,0.506,0.232,0.942,0.232h2.036v1.031
			h-9.391v-1.031h2.324c0.31,0,0.547-0.078,0.711-0.232c0.164-0.155,0.246-0.36,0.246-0.615v-16.382
			c0-0.346-0.104-0.607-0.314-0.785c-0.209-0.178-0.547-0.267-1.011-0.267c-1.321,0-2.423,0.623-3.307,1.871
			c-0.729,1.029-1.253,2.65-1.571,4.863h-1L811.607,191.266z"/>
		<path d="M841.985,205.172h-9.172c0.045,1.945,0.41,3.318,1.094,4.118c0.783,0.9,1.781,1.351,2.994,1.351
			c1.786,0,3.222-1.016,4.307-3.047l0.887,0.382c-1.332,2.589-3.256,3.884-5.772,3.884c-1.714,0-3.157-0.619-4.329-1.857
			s-1.758-2.823-1.758-4.754c0-2.075,0.576-3.753,1.73-5.032c1.153-1.279,2.574-1.919,4.261-1.919c1.24,0,2.312,0.318,3.215,0.956
			c0.902,0.639,1.582,1.554,2.038,2.748C841.798,202.839,841.967,203.896,841.985,205.172z M832.813,204.203h5.554
			c0.329,0,0.584-0.111,0.767-0.335c0.182-0.223,0.273-0.603,0.273-1.14c0-1.001-0.312-1.852-0.938-2.553
			c-0.625-0.7-1.361-1.051-2.209-1.051c-0.948,0-1.754,0.423-2.414,1.27C833.185,201.24,832.841,202.51,832.813,204.203z"/>
		<path d="M843.97,198.672l4.25-0.266c0.17,0.802,0.295,1.74,0.375,2.816c0.574-0.929,1.252-1.625,2.032-2.089
			c0.78-0.465,1.663-0.696,2.648-0.696c0.849,0,1.561,0.166,2.136,0.499c0.574,0.332,1.035,0.858,1.382,1.578
			c0.347,0.721,0.521,1.526,0.521,2.42v6.233c0,0.465,0.104,0.795,0.314,0.991c0.209,0.195,0.559,0.294,1.051,0.294h0.9v1.031h-6.75
			v-1.031h0.641c0.601,0,1.019-0.096,1.255-0.287s0.354-0.479,0.354-0.862v-5.483c0-1.193-0.183-2.078-0.547-2.652
			c-0.511-0.82-1.286-1.23-2.326-1.23c-1.03,0-1.891,0.414-2.578,1.244c-0.689,0.829-1.033,1.91-1.033,3.24v4.745
			c0,0.466,0.106,0.796,0.32,0.992c0.214,0.195,0.566,0.294,1.059,0.294h0.887v1.031h-6.766v-1.031h0.887
			c0.445,0,0.783-0.092,1.016-0.273c0.231-0.183,0.348-0.41,0.348-0.684v-8.267c0-0.547-0.148-0.961-0.443-1.244
			c-0.296-0.282-0.722-0.423-1.276-0.423h-0.655V198.672z"/>
		<path d="M867.103,198.297c1.723,0,3.168,0.621,4.34,1.864c1.17,1.243,1.756,2.88,1.756,4.91c0,1.402-0.262,2.597-0.786,3.585
			c-0.523,0.988-1.271,1.769-2.241,2.343c-0.971,0.573-2.016,0.86-3.137,0.86c-1.658,0-3.064-0.629-4.217-1.885
			c-1.152-1.257-1.729-2.887-1.729-4.89c0-2.013,0.578-3.647,1.735-4.903C863.981,198.925,865.407,198.297,867.103,198.297z
			 M867.103,199.266c-1.021,0-1.858,0.462-2.514,1.386c-0.656,0.925-0.984,2.384-0.984,4.379c0,2.03,0.326,3.515,0.977,4.453
			c0.652,0.938,1.492,1.407,2.521,1.407c1.065,0,1.929-0.47,2.59-1.407c0.66-0.938,0.99-2.473,0.99-4.604
			c0-1.977-0.326-3.406-0.977-4.289C869.054,199.707,868.187,199.266,867.103,199.266z"/>
		<path d="M874.854,198.672l4.609-0.234v5.181c0.492-1.704,1.086-2.993,1.779-3.868c0.694-0.875,1.553-1.312,2.574-1.312
			c0.694,0,1.248,0.212,1.664,0.636c0.415,0.424,0.623,0.991,0.623,1.702c0,0.574-0.139,1.021-0.417,1.34
			c-0.277,0.318-0.626,0.479-1.045,0.479c-0.41,0-0.74-0.137-0.99-0.41c-0.251-0.273-0.376-0.643-0.376-1.106
			c0-0.301,0.072-0.583,0.218-0.848c0.136-0.236,0.204-0.378,0.204-0.423c0-0.137-0.087-0.205-0.26-0.205
			c-0.375,0-0.799,0.219-1.273,0.655c-0.658,0.611-1.164,1.449-1.521,2.516c-0.548,1.658-0.821,2.983-0.821,3.977v2.747
			c0,0.31,0.109,0.547,0.328,0.711s0.593,0.246,1.122,0.246h1.628v1.031h-7.969v-1.031h1.275c0.43,0,0.754-0.085,0.974-0.253
			c0.22-0.169,0.329-0.372,0.329-0.608v-8.161c0-0.619-0.133-1.072-0.397-1.359s-0.644-0.431-1.136-0.431h-1.123V198.672z"/>
		<path d="M1013.269,191.266h10.55c2.07,0,3.655,0.455,4.755,1.365c1.099,0.911,1.648,2.054,1.648,3.429
			c0,1.147-0.384,2.122-1.15,2.923c-0.767,0.802-1.921,1.435-3.464,1.898c1.908,0.401,3.339,1.033,4.293,1.896
			c0.954,0.861,1.431,1.949,1.431,3.263c0,1.003-0.271,1.893-0.814,2.668s-1.445,1.432-2.709,1.97s-2.698,0.808-4.304,0.808h-10.235
			v-1.031h1.672c0.503,0,0.871-0.082,1.104-0.246s0.35-0.351,0.35-0.561v-16.188c0-0.383-0.114-0.672-0.343-0.868
			c-0.229-0.195-0.562-0.293-1.001-0.293h-1.781V191.266z M1019.315,200.547h3.83c1.176,0,2.113-0.346,2.811-1.037
			c0.698-0.691,1.047-1.823,1.047-3.397c0-0.973-0.166-1.732-0.499-2.278s-0.816-0.943-1.45-1.193s-1.73-0.375-3.29-0.375
			c-1.104,0-1.787,0.079-2.052,0.238s-0.396,0.439-0.396,0.839V200.547z M1019.315,201.578v7.782c0,0.364,0.107,0.638,0.321,0.819
			c0.215,0.183,0.6,0.273,1.156,0.273h2.449c1.623,0,2.822-0.357,3.598-1.072c0.775-0.714,1.163-1.827,1.163-3.338
			c0-1.384-0.401-2.474-1.204-3.271c-0.803-0.796-1.911-1.194-3.324-1.194H1019.315z"/>
		<path d="M1046.636,210.062l0.494,0.768c-0.666,0.686-1.406,1.029-2.219,1.029c-0.621,0-1.144-0.169-1.567-0.505
			c-0.425-0.336-0.797-0.927-1.116-1.771c-0.867,0.908-1.629,1.516-2.285,1.819c-0.657,0.305-1.446,0.457-2.367,0.457
			c-1.314,0-2.312-0.282-2.997-0.847c-0.685-0.563-1.026-1.287-1.026-2.169c0-1.328,0.782-2.432,2.347-3.31s3.647-1.462,6.247-1.753
			v-1.94c0-0.691-0.278-1.283-0.835-1.775c-0.557-0.491-1.264-0.737-2.121-0.737c-0.794,0-1.479,0.163-2.053,0.491
			c-0.411,0.246-0.616,0.487-0.616,0.724c0,0.137,0.108,0.351,0.325,0.642c0.263,0.364,0.394,0.688,0.394,0.97
			c0,0.409-0.132,0.744-0.396,1.003c-0.264,0.26-0.609,0.39-1.037,0.39c-0.455,0-0.836-0.155-1.141-0.465
			c-0.305-0.311-0.457-0.707-0.457-1.189c0-0.902,0.508-1.728,1.525-2.475c1.017-0.748,2.351-1.121,4.001-1.121
			c1.523,0,2.686,0.327,3.488,0.982c0.803,0.664,1.204,1.47,1.204,2.416v6.989c0,0.618,0.101,1.073,0.302,1.364
			c0.201,0.301,0.462,0.451,0.782,0.451C1045.867,210.5,1046.242,210.354,1046.636,210.062z M1042.146,204.688
			c-2.32,0.318-3.965,0.836-4.934,1.555c-0.721,0.545-1.082,1.317-1.082,2.317c0,0.7,0.188,1.248,0.562,1.644
			c0.375,0.396,0.863,0.594,1.467,0.594c1.077,0,2.012-0.407,2.802-1.221s1.186-1.834,1.186-3.062V204.688z"/>
		<path d="M1048.452,198.672l4.609-0.234v5.181c0.492-1.704,1.086-2.993,1.779-3.868c0.694-0.875,1.553-1.312,2.574-1.312
			c0.694,0,1.248,0.212,1.664,0.636c0.415,0.424,0.623,0.991,0.623,1.702c0,0.574-0.139,1.021-0.417,1.34
			c-0.277,0.318-0.626,0.479-1.045,0.479c-0.41,0-0.74-0.137-0.99-0.41c-0.251-0.273-0.376-0.643-0.376-1.106
			c0-0.301,0.072-0.583,0.218-0.848c0.136-0.236,0.204-0.378,0.204-0.423c0-0.137-0.087-0.205-0.26-0.205
			c-0.375,0-0.799,0.219-1.273,0.655c-0.658,0.611-1.164,1.449-1.521,2.516c-0.548,1.658-0.821,2.983-0.821,3.977v2.747
			c0,0.31,0.109,0.547,0.328,0.711s0.593,0.246,1.122,0.246h1.628v1.031h-7.969v-1.031h1.275c0.43,0,0.754-0.085,0.974-0.253
			c0.22-0.169,0.329-0.372,0.329-0.608v-8.161c0-0.619-0.133-1.072-0.397-1.359s-0.644-0.431-1.136-0.431h-1.123V198.672z"/>
		<path d="M1060.833,198.672l5.109-0.156v11.021c0,0.302,0.073,0.516,0.22,0.644c0.21,0.182,0.476,0.273,0.795,0.273h1.454v1.031
			h-7.297v-1.031h1.354c0.4,0,0.695-0.099,0.882-0.294c0.187-0.196,0.28-0.48,0.28-0.854v-8.06c0-0.51-0.146-0.895-0.438-1.154
			c-0.293-0.259-0.728-0.389-1.303-0.389h-1.056V198.672z M1064.396,191.016c0.41,0,0.771,0.154,1.081,0.465
			c0.31,0.31,0.465,0.675,0.465,1.095c0,0.41-0.15,0.766-0.451,1.066c-0.301,0.302-0.662,0.452-1.081,0.452
			c-0.42,0-0.782-0.153-1.088-0.459c-0.306-0.305-0.458-0.663-0.458-1.073c0-0.411,0.155-0.771,0.465-1.081
			C1063.64,191.17,1063.995,191.016,1064.396,191.016z"/>
		<path d="M1073.276,193.453h0.922v5.219h4.141v1.266h-4.141v8.207c0,0.71,0.168,1.254,0.506,1.632
			c0.337,0.378,0.765,0.567,1.284,0.567c0.62,0,1.147-0.287,1.585-0.861c0.438-0.573,0.692-1.521,0.766-2.842h0.922
			c-0.055,1.704-0.442,2.969-1.162,3.794c-0.721,0.824-1.655,1.237-2.804,1.237c-1.058,0-1.885-0.289-2.482-0.868
			c-0.597-0.578-0.896-1.336-0.896-2.274v-8.592h-2.234v-0.963c1.015-0.174,1.787-0.597,2.318-1.271
			C1072.787,196.692,1073.212,195.275,1073.276,193.453z"/>
		<path d="M1086.843,198.297c1.723,0,3.168,0.621,4.34,1.864c1.17,1.243,1.756,2.88,1.756,4.91c0,1.402-0.262,2.597-0.786,3.585
			c-0.523,0.988-1.271,1.769-2.241,2.343c-0.971,0.573-2.016,0.86-3.137,0.86c-1.658,0-3.064-0.629-4.217-1.885
			c-1.152-1.257-1.729-2.887-1.729-4.89c0-2.013,0.578-3.647,1.735-4.903C1083.722,198.925,1085.147,198.297,1086.843,198.297z
			 M1086.843,199.266c-1.021,0-1.858,0.462-2.514,1.386c-0.656,0.925-0.984,2.384-0.984,4.379c0,2.03,0.326,3.515,0.977,4.453
			c0.652,0.938,1.492,1.407,2.521,1.407c1.065,0,1.929-0.47,2.59-1.407c0.66-0.938,0.99-2.473,0.99-4.604
			c0-1.977-0.326-3.406-0.977-4.289C1088.794,199.707,1087.927,199.266,1086.843,199.266z"/>
		<path d="M1094.813,198.672l4.25-0.266c0.17,0.802,0.295,1.74,0.375,2.816c0.574-0.929,1.252-1.625,2.032-2.089
			c0.78-0.465,1.663-0.696,2.648-0.696c0.849,0,1.561,0.166,2.136,0.499c0.574,0.332,1.035,0.858,1.382,1.578
			c0.347,0.721,0.521,1.526,0.521,2.42v6.233c0,0.465,0.104,0.795,0.314,0.991c0.209,0.195,0.559,0.294,1.051,0.294h0.9v1.031h-6.75
			v-1.031h0.641c0.601,0,1.019-0.096,1.255-0.287s0.354-0.479,0.354-0.862v-5.483c0-1.193-0.183-2.078-0.547-2.652
			c-0.511-0.82-1.286-1.23-2.326-1.23c-1.03,0-1.891,0.414-2.578,1.244c-0.689,0.829-1.033,1.91-1.033,3.24v4.745
			c0,0.466,0.106,0.796,0.32,0.992c0.214,0.195,0.566,0.294,1.059,0.294h0.887v1.031h-6.766v-1.031h0.887
			c0.445,0,0.783-0.092,1.016-0.273c0.231-0.183,0.348-0.41,0.348-0.684v-8.267c0-0.547-0.148-0.961-0.443-1.244
			c-0.296-0.282-0.722-0.423-1.276-0.423h-0.655V198.672z"/>
		<path d="M1123.933,205.172h-9.172c0.045,1.945,0.41,3.318,1.094,4.118c0.783,0.9,1.781,1.351,2.994,1.351
			c1.786,0,3.222-1.016,4.307-3.047l0.887,0.382c-1.332,2.589-3.256,3.884-5.772,3.884c-1.714,0-3.157-0.619-4.329-1.857
			s-1.758-2.823-1.758-4.754c0-2.075,0.576-3.753,1.73-5.032c1.153-1.279,2.574-1.919,4.261-1.919c1.24,0,2.312,0.318,3.215,0.956
			c0.902,0.639,1.582,1.554,2.038,2.748C1123.745,202.839,1123.914,203.896,1123.933,205.172z M1114.761,204.203h5.554
			c0.329,0,0.584-0.111,0.767-0.335c0.182-0.223,0.273-0.603,0.273-1.14c0-1.001-0.312-1.852-0.938-2.553
			c-0.625-0.7-1.361-1.051-2.209-1.051c-0.948,0-1.754,0.423-2.414,1.27C1115.132,201.24,1114.788,202.51,1114.761,204.203z"/>
		<path d="M1264.931,191.266h10.55c2.07,0,3.655,0.455,4.755,1.365c1.099,0.911,1.648,2.054,1.648,3.429
			c0,1.147-0.384,2.122-1.15,2.923c-0.767,0.802-1.921,1.435-3.464,1.898c1.908,0.401,3.339,1.033,4.293,1.896
			c0.954,0.861,1.431,1.949,1.431,3.263c0,1.003-0.271,1.893-0.814,2.668s-1.445,1.432-2.709,1.97s-2.698,0.808-4.304,0.808h-10.235
			v-1.031h1.672c0.503,0,0.871-0.082,1.104-0.246s0.35-0.351,0.35-0.561v-16.188c0-0.383-0.114-0.672-0.343-0.868
			c-0.229-0.195-0.562-0.293-1.001-0.293h-1.781V191.266z M1270.978,200.547h3.83c1.176,0,2.113-0.346,2.811-1.037
			c0.698-0.691,1.047-1.823,1.047-3.397c0-0.973-0.166-1.732-0.499-2.278s-0.816-0.943-1.45-1.193s-1.73-0.375-3.29-0.375
			c-1.104,0-1.787,0.079-2.052,0.238s-0.396,0.439-0.396,0.839V200.547z M1270.978,201.578v7.782c0,0.364,0.107,0.638,0.321,0.819
			c0.215,0.183,0.6,0.273,1.156,0.273h2.449c1.623,0,2.822-0.357,3.598-1.072c0.775-0.714,1.163-1.827,1.163-3.338
			c0-1.384-0.401-2.474-1.204-3.271c-0.803-0.796-1.911-1.194-3.324-1.194H1270.978z"/>
		<path d="M1298.298,210.062l0.494,0.768c-0.666,0.686-1.406,1.029-2.219,1.029c-0.621,0-1.144-0.169-1.567-0.505
			c-0.425-0.336-0.797-0.927-1.116-1.771c-0.867,0.908-1.629,1.516-2.285,1.819c-0.657,0.305-1.446,0.457-2.367,0.457
			c-1.314,0-2.312-0.282-2.997-0.847c-0.685-0.563-1.026-1.287-1.026-2.169c0-1.328,0.782-2.432,2.347-3.31s3.647-1.462,6.247-1.753
			v-1.94c0-0.691-0.278-1.283-0.835-1.775c-0.557-0.491-1.264-0.737-2.121-0.737c-0.794,0-1.479,0.163-2.053,0.491
			c-0.411,0.246-0.616,0.487-0.616,0.724c0,0.137,0.108,0.351,0.325,0.642c0.263,0.364,0.394,0.688,0.394,0.97
			c0,0.409-0.132,0.744-0.396,1.003c-0.264,0.26-0.609,0.39-1.037,0.39c-0.455,0-0.836-0.155-1.141-0.465
			c-0.305-0.311-0.457-0.707-0.457-1.189c0-0.902,0.508-1.728,1.525-2.475c1.017-0.748,2.351-1.121,4.001-1.121
			c1.523,0,2.686,0.327,3.488,0.982c0.803,0.664,1.204,1.47,1.204,2.416v6.989c0,0.618,0.101,1.073,0.302,1.364
			c0.201,0.301,0.462,0.451,0.782,0.451C1297.529,210.5,1297.904,210.354,1298.298,210.062z M1293.808,204.688
			c-2.32,0.318-3.965,0.836-4.934,1.555c-0.721,0.545-1.082,1.317-1.082,2.317c0,0.7,0.188,1.248,0.562,1.644
			c0.375,0.396,0.863,0.594,1.467,0.594c1.077,0,2.012-0.407,2.802-1.221s1.186-1.834,1.186-3.062V204.688z"/>
		<path d="M1301.88,206.672c0.563,1.566,1.212,2.65,1.943,3.253c0.732,0.602,1.635,0.903,2.708,0.903
			c0.991,0,1.753-0.217,2.285-0.649c0.532-0.434,0.798-0.982,0.798-1.647c0-0.383-0.098-0.718-0.294-1.005s-0.468-0.502-0.814-0.643
			c-0.347-0.142-1.245-0.349-2.694-0.622c-1.387-0.272-2.353-0.56-2.899-0.86c-0.547-0.3-0.973-0.715-1.277-1.243
			c-0.306-0.527-0.458-1.102-0.458-1.721c0-0.938,0.314-1.789,0.944-2.555c0.812-0.974,1.948-1.461,3.408-1.461
			c1.112,0,2.144,0.35,3.093,1.05l0.903-0.956h0.562l0.355,4.562h-0.922c-0.401-1.291-0.944-2.221-1.629-2.789
			c-0.684-0.567-1.527-0.852-2.531-0.852c-0.866,0-1.546,0.211-2.039,0.634c-0.492,0.423-0.738,0.938-0.738,1.548
			c0,0.537,0.229,0.982,0.685,1.337c0.446,0.363,1.322,0.649,2.627,0.856c1.515,0.252,2.5,0.464,2.956,0.635
			c0.749,0.274,1.329,0.696,1.74,1.268c0.411,0.57,0.617,1.268,0.617,2.089c0,1.133-0.445,2.092-1.334,2.877
			c-0.89,0.786-2.019,1.179-3.387,1.179c-1.269,0-2.445-0.414-3.531-1.241l-0.999,1.147h-0.726l-0.273-5.094H1301.88z"/>
		<path d="M1314.841,206.672c0.563,1.566,1.212,2.65,1.943,3.253c0.732,0.602,1.635,0.903,2.708,0.903
			c0.991,0,1.753-0.217,2.285-0.649c0.532-0.434,0.798-0.982,0.798-1.647c0-0.383-0.098-0.718-0.294-1.005s-0.468-0.502-0.814-0.643
			c-0.347-0.142-1.245-0.349-2.694-0.622c-1.387-0.272-2.353-0.56-2.899-0.86c-0.547-0.3-0.973-0.715-1.277-1.243
			c-0.306-0.527-0.458-1.102-0.458-1.721c0-0.938,0.314-1.789,0.944-2.555c0.812-0.974,1.948-1.461,3.408-1.461
			c1.112,0,2.144,0.35,3.093,1.05l0.903-0.956h0.562l0.355,4.562h-0.922c-0.401-1.291-0.944-2.221-1.629-2.789
			c-0.684-0.567-1.527-0.852-2.531-0.852c-0.866,0-1.546,0.211-2.039,0.634c-0.492,0.423-0.738,0.938-0.738,1.548
			c0,0.537,0.229,0.982,0.685,1.337c0.446,0.363,1.322,0.649,2.627,0.856c1.515,0.252,2.5,0.464,2.956,0.635
			c0.749,0.274,1.329,0.696,1.74,1.268c0.411,0.57,0.617,1.268,0.617,2.089c0,1.133-0.445,2.092-1.334,2.877
			c-0.89,0.786-2.019,1.179-3.387,1.179c-1.269,0-2.445-0.414-3.531-1.241l-0.999,1.147h-0.726l-0.273-5.094H1314.841z"/>
		<path d="M1405.729,192.797l1.229-1.766h1l0.078,7.375h-0.906c-0.564-2.264-1.4-3.915-2.507-4.955
			c-1.106-1.041-2.379-1.561-3.817-1.561c-1.202,0-2.186,0.36-2.95,1.08c-0.765,0.721-1.147,1.601-1.147,2.64
			c0,0.647,0.146,1.216,0.438,1.703c0.291,0.488,0.727,0.885,1.305,1.19c0.579,0.306,1.671,0.631,3.276,0.976
			c2.253,0.49,3.832,0.985,4.737,1.486c0.906,0.501,1.582,1.133,2.028,1.894s0.669,1.651,0.669,2.672
			c0,1.822-0.613,3.332-1.839,4.53c-1.227,1.198-2.811,1.798-4.752,1.798c-2.088,0-3.901-0.678-5.442-2.031l-1.545,1.891h-0.984
			v-7.828h0.984c0.383,2.159,1.24,3.863,2.572,5.111c1.331,1.249,2.832,1.873,4.501,1.873c1.35,0,2.451-0.398,3.304-1.196
			c0.853-0.797,1.279-1.765,1.279-2.903c0-0.646-0.16-1.214-0.479-1.701c-0.319-0.487-0.825-0.897-1.519-1.23
			c-0.692-0.332-2.056-0.736-4.089-1.21c-2.234-0.529-3.756-1.121-4.566-1.777c-1.139-0.929-1.707-2.244-1.707-3.947
			c0-1.776,0.566-3.231,1.701-4.365c1.134-1.134,2.584-1.7,4.352-1.7c0.848,0,1.653,0.15,2.418,0.45
			C1404.116,191.595,1404.908,192.096,1405.729,192.797z"/>
		<path d="M1415.72,198.438v8.494c0,1.04,0.262,1.842,0.785,2.407s1.199,0.849,2.027,0.849c1.019,0,1.886-0.413,2.6-1.238
			c0.715-0.826,1.072-1.858,1.072-3.1v-4.802c0-0.438-0.157-0.778-0.472-1.02c-0.313-0.242-0.917-0.376-1.81-0.403v-0.953l4.5-0.234
			v10.512c0,0.483,0.137,0.854,0.409,1.114s0.654,0.39,1.146,0.39h0.805v0.922l-4.297,0.094l-0.281-2.513
			c-0.765,0.9-1.533,1.578-2.307,2.033s-1.557,0.683-2.348,0.683c-1.156,0-2.125-0.388-2.908-1.163
			c-0.792-0.766-1.188-2.064-1.188-3.896v-5.565c0-0.492-0.195-0.866-0.587-1.121c-0.272-0.183-0.833-0.283-1.679-0.301v-0.953
			L1415.72,198.438z"/>
		<path d="M1432.417,191.031v9.534c0.537-0.761,1.133-1.329,1.788-1.705s1.37-0.563,2.144-0.563c1.502,0,2.771,0.587,3.809,1.762
			c1.038,1.175,1.557,2.724,1.557,4.646c0,2.086-0.559,3.769-1.674,5.048c-1.117,1.28-2.499,1.92-4.148,1.92
			c-0.783,0-1.494-0.155-2.132-0.465s-1.294-0.834-1.968-1.572c-0.519,0.829-1.019,1.509-1.5,2.037l-0.562-0.188
			c0.26-1.048,0.391-2.142,0.391-3.28v-14.473c0-0.446-0.157-0.797-0.471-1.052c-0.314-0.256-0.758-0.383-1.331-0.383h-0.573v-1.031
			L1432.417,191.031z M1435.855,199.516c-1.03,0-1.868,0.447-2.515,1.343c-0.647,0.896-0.971,2.376-0.971,4.439
			c0,1.964,0.318,3.369,0.957,4.215c0.638,0.846,1.471,1.269,2.501,1.269c0.929,0,1.677-0.419,2.241-1.255
			c0.711-1.055,1.066-2.56,1.066-4.515c0-1.928-0.312-3.325-0.937-4.194C1437.575,199.949,1436.794,199.516,1435.855,199.516z"/>
		<path d="M1447.989,191.031v9.534c0.537-0.761,1.133-1.329,1.788-1.705s1.37-0.563,2.144-0.563c1.502,0,2.771,0.587,3.809,1.762
			c1.038,1.175,1.557,2.724,1.557,4.646c0,2.086-0.559,3.769-1.674,5.048c-1.117,1.28-2.499,1.92-4.148,1.92
			c-0.783,0-1.494-0.155-2.132-0.465s-1.294-0.834-1.968-1.572c-0.519,0.829-1.019,1.509-1.5,2.037l-0.562-0.188
			c0.26-1.048,0.391-2.142,0.391-3.28v-14.473c0-0.446-0.157-0.797-0.471-1.052c-0.314-0.256-0.758-0.383-1.331-0.383h-0.573v-1.031
			L1447.989,191.031z M1451.428,199.516c-1.03,0-1.868,0.447-2.515,1.343c-0.647,0.896-0.971,2.376-0.971,4.439
			c0,1.964,0.318,3.369,0.957,4.215c0.638,0.846,1.471,1.269,2.501,1.269c0.929,0,1.677-0.419,2.241-1.255
			c0.711-1.055,1.066-2.56,1.066-4.515c0-1.928-0.312-3.325-0.937-4.194C1453.147,199.949,1452.366,199.516,1451.428,199.516z"/>
		<path d="M1473.13,210.062l0.494,0.768c-0.666,0.686-1.406,1.029-2.219,1.029c-0.621,0-1.144-0.169-1.567-0.505
			c-0.425-0.336-0.797-0.927-1.116-1.771c-0.867,0.908-1.629,1.516-2.285,1.819c-0.657,0.305-1.446,0.457-2.367,0.457
			c-1.314,0-2.312-0.282-2.997-0.847c-0.685-0.563-1.026-1.287-1.026-2.169c0-1.328,0.782-2.432,2.347-3.31s3.647-1.462,6.247-1.753
			v-1.94c0-0.691-0.278-1.283-0.835-1.775c-0.557-0.491-1.264-0.737-2.121-0.737c-0.794,0-1.479,0.163-2.053,0.491
			c-0.411,0.246-0.616,0.487-0.616,0.724c0,0.137,0.108,0.351,0.325,0.642c0.263,0.364,0.394,0.688,0.394,0.97
			c0,0.409-0.132,0.744-0.396,1.003c-0.264,0.26-0.609,0.39-1.037,0.39c-0.455,0-0.836-0.155-1.141-0.465
			c-0.305-0.311-0.457-0.707-0.457-1.189c0-0.902,0.508-1.728,1.525-2.475c1.017-0.748,2.351-1.121,4.001-1.121
			c1.523,0,2.686,0.327,3.488,0.982c0.803,0.664,1.204,1.47,1.204,2.416v6.989c0,0.618,0.101,1.073,0.302,1.364
			c0.201,0.301,0.462,0.451,0.782,0.451C1472.361,210.5,1472.736,210.354,1473.13,210.062z M1468.64,204.688
			c-2.32,0.318-3.965,0.836-4.934,1.555c-0.721,0.545-1.082,1.317-1.082,2.317c0,0.7,0.188,1.248,0.562,1.644
			c0.375,0.396,0.863,0.594,1.467,0.594c1.077,0,2.012-0.407,2.802-1.221s1.186-1.834,1.186-3.062V204.688z"/>
		<path d="M1476.712,206.672c0.563,1.566,1.212,2.65,1.943,3.253c0.732,0.602,1.635,0.903,2.708,0.903
			c0.991,0,1.753-0.217,2.285-0.649c0.532-0.434,0.798-0.982,0.798-1.647c0-0.383-0.098-0.718-0.294-1.005s-0.468-0.502-0.814-0.643
			c-0.347-0.142-1.245-0.349-2.694-0.622c-1.387-0.272-2.353-0.56-2.899-0.86c-0.547-0.3-0.973-0.715-1.277-1.243
			c-0.306-0.527-0.458-1.102-0.458-1.721c0-0.938,0.314-1.789,0.944-2.555c0.812-0.974,1.948-1.461,3.408-1.461
			c1.112,0,2.144,0.35,3.093,1.05l0.903-0.956h0.562l0.355,4.562h-0.922c-0.401-1.291-0.944-2.221-1.629-2.789
			c-0.684-0.567-1.527-0.852-2.531-0.852c-0.866,0-1.546,0.211-2.039,0.634c-0.492,0.423-0.738,0.938-0.738,1.548
			c0,0.537,0.229,0.982,0.685,1.337c0.446,0.363,1.322,0.649,2.627,0.856c1.515,0.252,2.5,0.464,2.956,0.635
			c0.749,0.274,1.329,0.696,1.74,1.268c0.411,0.57,0.617,1.268,0.617,2.089c0,1.133-0.445,2.092-1.334,2.877
			c-0.89,0.786-2.019,1.179-3.387,1.179c-1.269,0-2.445-0.414-3.531-1.241l-0.999,1.147h-0.726l-0.273-5.094H1476.712z"/>
		<path d="M1489.673,206.672c0.563,1.566,1.212,2.65,1.943,3.253c0.732,0.602,1.635,0.903,2.708,0.903
			c0.991,0,1.753-0.217,2.285-0.649c0.532-0.434,0.798-0.982,0.798-1.647c0-0.383-0.098-0.718-0.294-1.005s-0.468-0.502-0.814-0.643
			c-0.347-0.142-1.245-0.349-2.694-0.622c-1.387-0.272-2.353-0.56-2.899-0.86c-0.547-0.3-0.973-0.715-1.277-1.243
			c-0.306-0.527-0.458-1.102-0.458-1.721c0-0.938,0.314-1.789,0.944-2.555c0.812-0.974,1.948-1.461,3.408-1.461
			c1.112,0,2.144,0.35,3.093,1.05l0.903-0.956h0.562l0.355,4.562h-0.922c-0.401-1.291-0.944-2.221-1.629-2.789
			c-0.684-0.567-1.527-0.852-2.531-0.852c-0.866,0-1.546,0.211-2.039,0.634c-0.492,0.423-0.738,0.938-0.738,1.548
			c0,0.537,0.229,0.982,0.685,1.337c0.446,0.363,1.322,0.649,2.627,0.856c1.515,0.252,2.5,0.464,2.956,0.635
			c0.749,0.274,1.329,0.696,1.74,1.268c0.411,0.57,0.617,1.268,0.617,2.089c0,1.133-0.445,2.092-1.334,2.877
			c-0.89,0.786-2.019,1.179-3.387,1.179c-1.269,0-2.445-0.414-3.531-1.241l-0.999,1.147h-0.726l-0.273-5.094H1489.673z"/>
	</g>
	<g>
		<path d="M1143.291,158.545h1.688v0.801c0,1.465-0.36,2.914-1.08,4.35c-0.72,1.434-1.673,2.594-2.856,3.479
			c-1.021,0.779-2.229,1.332-3.623,1.66s-3.467,0.492-6.219,0.492h-41.909v-3.094h41.282h2.134c3.209,0,5.698-0.641,7.466-1.922
			C1141.942,163.029,1142.981,161.107,1143.291,158.545z"/>
		<path d="M1063.748,176.587h0.465c0.219-3.794,1.312-6.469,3.282-8.022c1.969-1.555,5.297-2.332,9.983-2.332h15.125v3.094h-15.344
			c-3.957,0-6.833,0.609-8.63,1.826c-1.796,1.219-2.895,3.266-3.295,6.143h-2.627c-0.4-2.861-1.508-4.905-3.322-6.131
			s-4.709-1.838-8.684-1.838h-15.411v-3.094h15.247c4.668,0,7.981,0.773,9.941,2.32S1063.529,172.777,1063.748,176.587z"/>
		<path d="M997.438,166.232h41.322v3.094h-41.951c-4.81,0-8.261-0.828-10.356-2.484c-2.094-1.655-3.242-4.421-3.442-8.297h1.656
			c0.31,2.593,1.358,4.522,3.146,5.789c1.787,1.266,4.358,1.898,7.713,1.898H997.438z"/>
	</g>
</g>
</svg>
